# Tiled2Unity generated file. Do not modify by hand.
# Wavefront file for 'Controls_mesh_0003.obj'

# Vertices (Count = 520)
v -19 -1 0
v -20 -1 0
v -20 0 0
v -19 0 0
v -18 -1 0
v -19 -1 0
v -19 0 0
v -18 0 0
v -17 -1 0
v -18 -1 0
v -18 0 0
v -17 0 0
v -13 -1 0
v -14 -1 0
v -14 0 0
v -13 0 0
v -12 -1 0
v -13 -1 0
v -13 0 0
v -12 0 0
v -11 -1 0
v -12 -1 0
v -12 0 0
v -11 0 0
v -10 -1 0
v -11 -1 0
v -11 0 0
v -10 0 0
v -5 -1 0
v -6 -1 0
v -6 0 0
v -5 0 0
v -4 -1 0
v -5 -1 0
v -5 0 0
v -4 0 0
v -1 -1 0
v -2 -1 0
v -2 0 0
v -1 0 0
v -24 -2 0
v -25 -2 0
v -25 -1 0
v -24 -1 0
v -23 -2 0
v -24 -2 0
v -24 -1 0
v -23 -1 0
v -22 -2 0
v -23 -2 0
v -23 -1 0
v -22 -1 0
v -21 -2 0
v -22 -2 0
v -22 -1 0
v -21 -1 0
v -20 -2 0
v -21 -2 0
v -21 -1 0
v -20 -1 0
v -19 -2 0
v -20 -2 0
v -20 -1 0
v -19 -1 0
v -18 -2 0
v -19 -2 0
v -19 -1 0
v -18 -1 0
v -17 -2 0
v -18 -2 0
v -18 -1 0
v -17 -1 0
v -16 -2 0
v -17 -2 0
v -17 -1 0
v -16 -1 0
v -15 -2 0
v -16 -2 0
v -16 -1 0
v -15 -1 0
v -14 -2 0
v -15 -2 0
v -15 -1 0
v -14 -1 0
v -13 -2 0
v -14 -2 0
v -14 -1 0
v -13 -1 0
v -12 -2 0
v -13 -2 0
v -13 -1 0
v -12 -1 0
v -11 -2 0
v -12 -2 0
v -12 -1 0
v -11 -1 0
v -10 -2 0
v -11 -2 0
v -11 -1 0
v -10 -1 0
v -1 -2 0
v -2 -2 0
v -2 -1 0
v -1 -1 0
v 0 -2 0
v -1 -2 0
v -1 -1 0
v 0 -1 0
v -24 -3 0
v -25 -3 0
v -25 -2 0
v -24 -2 0
v -9 -3 0
v -10 -3 0
v -10 -2 0
v -9 -2 0
v -8 -3 0
v -9 -3 0
v -9 -2 0
v -8 -2 0
v -7 -3 0
v -8 -3 0
v -8 -2 0
v -7 -2 0
v -4 -3 0
v -5 -3 0
v -5 -2 0
v -4 -2 0
v -2 -3 0
v -3 -3 0
v -3 -2 0
v -2 -2 0
v 0 -3 0
v -1 -3 0
v -1 -2 0
v 0 -2 0
v -24 -4 0
v -25 -4 0
v -25 -3 0
v -24 -3 0
v -14 -4 0
v -15 -4 0
v -15 -3 0
v -14 -3 0
v -1 -4 0
v -2 -4 0
v -2 -3 0
v -1 -3 0
v 0 -4 0
v -1 -4 0
v -1 -3 0
v 0 -3 0
v -24 -5 0
v -25 -5 0
v -25 -4 0
v -24 -4 0
v 0 -5 0
v -1 -5 0
v -1 -4 0
v 0 -4 0
v -24 -6 0
v -25 -6 0
v -25 -5 0
v -24 -5 0
v -11 -6 0
v -12 -6 0
v -12 -5 0
v -11 -5 0
v -5 -6 0
v -6 -6 0
v -6 -5 0
v -5 -5 0
v -1 -6 0
v -2 -6 0
v -2 -5 0
v -1 -5 0
v 0 -6 0
v -1 -6 0
v -1 -5 0
v 0 -5 0
v -24 -7 0
v -25 -7 0
v -25 -6 0
v -24 -6 0
v -8 -7 0
v -9 -7 0
v -9 -6 0
v -8 -6 0
v -2 -7 0
v -3 -7 0
v -3 -6 0
v -2 -6 0
v -1 -7 0
v -2 -7 0
v -2 -6 0
v -1 -6 0
v 0 -7 0
v -1 -7 0
v -1 -6 0
v 0 -6 0
v -23 -8 0
v -24 -8 0
v -24 -7 0
v -23 -7 0
v -15 -8 0
v -16 -8 0
v -16 -7 0
v -15 -7 0
v -14 -8 0
v -15 -8 0
v -15 -7 0
v -14 -7 0
v -13 -8 0
v -14 -8 0
v -14 -7 0
v -13 -7 0
v -2 -8 0
v -3 -8 0
v -3 -7 0
v -2 -7 0
v -1 -8 0
v -2 -8 0
v -2 -7 0
v -1 -7 0
v 0 -8 0
v -1 -8 0
v -1 -7 0
v 0 -7 0
v -24 -9 0
v -25 -9 0
v -25 -8 0
v -24 -8 0
v -23 -9 0
v -24 -9 0
v -24 -8 0
v -23 -8 0
v -21 -9 0
v -22 -9 0
v -22 -8 0
v -21 -8 0
v -15 -9 0
v -16 -9 0
v -16 -8 0
v -15 -8 0
v -14 -9 0
v -15 -9 0
v -15 -8 0
v -14 -8 0
v -13 -9 0
v -14 -9 0
v -14 -8 0
v -13 -8 0
v -6 -9 0
v -7 -9 0
v -7 -8 0
v -6 -8 0
v 0 -9 0
v -1 -9 0
v -1 -8 0
v 0 -8 0
v -24 -10 0
v -25 -10 0
v -25 -9 0
v -24 -9 0
v -4 -10 0
v -5 -10 0
v -5 -9 0
v -4 -9 0
v 0 -10 0
v -1 -10 0
v -1 -9 0
v 0 -9 0
v -24 -11 0
v -25 -11 0
v -25 -10 0
v -24 -10 0
v -17 -11 0
v -18 -11 0
v -18 -10 0
v -17 -10 0
v -13 -11 0
v -14 -11 0
v -14 -10 0
v -13 -10 0
v 0 -11 0
v -1 -11 0
v -1 -10 0
v 0 -10 0
v -24 -12 0
v -25 -12 0
v -25 -11 0
v -24 -11 0
v -21 -12 0
v -22 -12 0
v -22 -11 0
v -21 -11 0
v -13 -12 0
v -14 -12 0
v -14 -11 0
v -13 -11 0
v 0 -12 0
v -1 -12 0
v -1 -11 0
v 0 -11 0
v -24 -13 0
v -25 -13 0
v -25 -12 0
v -24 -12 0
v -18 -13 0
v -19 -13 0
v -19 -12 0
v -18 -12 0
v -15 -13 0
v -16 -13 0
v -16 -12 0
v -15 -12 0
v 0 -13 0
v -1 -13 0
v -1 -12 0
v 0 -12 0
v -24 -14 0
v -25 -14 0
v -25 -13 0
v -24 -13 0
v -23 -14 0
v -24 -14 0
v -24 -13 0
v -23 -13 0
v -22 -14 0
v -23 -14 0
v -23 -13 0
v -22 -13 0
v -21 -14 0
v -22 -14 0
v -22 -13 0
v -21 -13 0
v -20 -14 0
v -21 -14 0
v -21 -13 0
v -20 -13 0
v -19 -14 0
v -20 -14 0
v -20 -13 0
v -19 -13 0
v -18 -14 0
v -19 -14 0
v -19 -13 0
v -18 -13 0
v -17 -14 0
v -18 -14 0
v -18 -13 0
v -17 -13 0
v -16 -14 0
v -17 -14 0
v -17 -13 0
v -16 -13 0
v -15 -14 0
v -16 -14 0
v -16 -13 0
v -15 -13 0
v -14 -14 0
v -15 -14 0
v -15 -13 0
v -14 -13 0
v -13 -14 0
v -14 -14 0
v -14 -13 0
v -13 -13 0
v -12 -14 0
v -13 -14 0
v -13 -13 0
v -12 -13 0
v -11 -14 0
v -12 -14 0
v -12 -13 0
v -11 -13 0
v -10 -14 0
v -11 -14 0
v -11 -13 0
v -10 -13 0
v -9 -14 0
v -10 -14 0
v -10 -13 0
v -9 -13 0
v -8 -14 0
v -9 -14 0
v -9 -13 0
v -8 -13 0
v -7 -14 0
v -8 -14 0
v -8 -13 0
v -7 -13 0
v -6 -14 0
v -7 -14 0
v -7 -13 0
v -6 -13 0
v -5 -14 0
v -6 -14 0
v -6 -13 0
v -5 -13 0
v -4 -14 0
v -5 -14 0
v -5 -13 0
v -4 -13 0
v -3 -14 0
v -4 -14 0
v -4 -13 0
v -3 -13 0
v -2 -14 0
v -3 -14 0
v -3 -13 0
v -2 -13 0
v -1 -14 0
v -2 -14 0
v -2 -13 0
v -1 -13 0
v 0 -14 0
v -1 -14 0
v -1 -13 0
v 0 -13 0
v -24 -15 0
v -25 -15 0
v -25 -14 0
v -24 -14 0
v -23 -15 0
v -24 -15 0
v -24 -14 0
v -23 -14 0
v -22 -15 0
v -23 -15 0
v -23 -14 0
v -22 -14 0
v -21 -15 0
v -22 -15 0
v -22 -14 0
v -21 -14 0
v -20 -15 0
v -21 -15 0
v -21 -14 0
v -20 -14 0
v -19 -15 0
v -20 -15 0
v -20 -14 0
v -19 -14 0
v -18 -15 0
v -19 -15 0
v -19 -14 0
v -18 -14 0
v -17 -15 0
v -18 -15 0
v -18 -14 0
v -17 -14 0
v -16 -15 0
v -17 -15 0
v -17 -14 0
v -16 -14 0
v -15 -15 0
v -16 -15 0
v -16 -14 0
v -15 -14 0
v -14 -15 0
v -15 -15 0
v -15 -14 0
v -14 -14 0
v -13 -15 0
v -14 -15 0
v -14 -14 0
v -13 -14 0
v -12 -15 0
v -13 -15 0
v -13 -14 0
v -12 -14 0
v -11 -15 0
v -12 -15 0
v -12 -14 0
v -11 -14 0
v -10 -15 0
v -11 -15 0
v -11 -14 0
v -10 -14 0
v -9 -15 0
v -10 -15 0
v -10 -14 0
v -9 -14 0
v -8 -15 0
v -9 -15 0
v -9 -14 0
v -8 -14 0
v -7 -15 0
v -8 -15 0
v -8 -14 0
v -7 -14 0
v -6 -15 0
v -7 -15 0
v -7 -14 0
v -6 -14 0
v -5 -15 0
v -6 -15 0
v -6 -14 0
v -5 -14 0
v -4 -15 0
v -5 -15 0
v -5 -14 0
v -4 -14 0
v -3 -15 0
v -4 -15 0
v -4 -14 0
v -3 -14 0
v -2 -15 0
v -3 -15 0
v -3 -14 0
v -2 -14 0
v -1 -15 0
v -2 -15 0
v -2 -14 0
v -1 -14 0
v 0 -15 0
v -1 -15 0
v -1 -14 0
v 0 -14 0

# Texture cooridinates (Count = 168)
vt 0.4741735 0.6787072
vt 0.4907025 0.6787072
vt 0.4907025 0.7091255
vt 0.4741735 0.7091255
vt 0.2458678 0.6463878
vt 0.2623967 0.6463878
vt 0.2623967 0.6768061
vt 0.2458678 0.6768061
vt 0.2283058 0.6463878
vt 0.2448347 0.6463878
vt 0.2448347 0.6768061
vt 0.2283058 0.6768061
vt 0.2634298 0.6463878
vt 0.2799587 0.6463878
vt 0.2799587 0.6768061
vt 0.2634298 0.6768061
vt 0.3161157 0.6463878
vt 0.3326446 0.6463878
vt 0.3326446 0.6768061
vt 0.3161157 0.6768061
vt 0.2985537 0.6463878
vt 0.3150826 0.6463878
vt 0.3150826 0.6768061
vt 0.2985537 0.6768061
vt 0.9132231 0.5171102
vt 0.9297521 0.5171102
vt 0.9297521 0.5475285
vt 0.9132231 0.5475285
vt 0.8956612 0.5171102
vt 0.9121901 0.5171102
vt 0.9121901 0.5475285
vt 0.8956612 0.5475285
vt 0.2634298 0.6787072
vt 0.2799587 0.6787072
vt 0.2799587 0.7091255
vt 0.2634298 0.7091255
vt 0.2458678 0.6787072
vt 0.2623967 0.6787072
vt 0.2623967 0.7091255
vt 0.2458678 0.7091255
vt 0.4741735 0.6463878
vt 0.4907025 0.6463878
vt 0.4907025 0.6768061
vt 0.4741735 0.6768061
vt 0.2458678 0.6140684
vt 0.2623967 0.6140684
vt 0.2623967 0.6444867
vt 0.2458678 0.6444867
vt 0.2283058 0.6140684
vt 0.2448347 0.6140684
vt 0.2448347 0.6444867
vt 0.2283058 0.6444867
vt 0.4039256 0.6787072
vt 0.4204545 0.6787072
vt 0.4204545 0.7091255
vt 0.4039256 0.7091255
vt 0.2634298 0.6140684
vt 0.2799587 0.6140684
vt 0.2799587 0.6444867
vt 0.2634298 0.6444867
vt 0.3161157 0.6140684
vt 0.3326446 0.6140684
vt 0.3326446 0.6444867
vt 0.3161157 0.6444867
vt 0.2985537 0.6140684
vt 0.3150826 0.6140684
vt 0.3150826 0.6444867
vt 0.2985537 0.6444867
vt 0.9132231 0.4524715
vt 0.9297521 0.4524715
vt 0.9297521 0.4828897
vt 0.9132231 0.4828897
vt 0.4917355 0.6463878
vt 0.5082645 0.6463878
vt 0.5082645 0.6768061
vt 0.4917355 0.6768061
vt 0.4566116 0.6140684
vt 0.4731405 0.6140684
vt 0.4731405 0.6444867
vt 0.4566116 0.6444867
vt 0.4917355 0.6140684
vt 0.5082645 0.6140684
vt 0.5082645 0.6444867
vt 0.4917355 0.6444867
vt 0.8956612 0.4524715
vt 0.9121901 0.4524715
vt 0.9121901 0.4828897
vt 0.8956612 0.4828897
vt 0.5444215 0.6787072
vt 0.5609504 0.6787072
vt 0.5609504 0.7091255
vt 0.5444215 0.7091255
vt 0.5092975 0.6787072
vt 0.5258265 0.6787072
vt 0.5258265 0.7091255
vt 0.5092975 0.7091255
vt 0.4917355 0.6787072
vt 0.5082645 0.6787072
vt 0.5082645 0.7091255
vt 0.4917355 0.7091255
vt 0.4214876 0.6787072
vt 0.4380165 0.6787072
vt 0.4380165 0.7091255
vt 0.4214876 0.7091255
vt 0.4390496 0.6787072
vt 0.4555785 0.6787072
vt 0.4555785 0.7091255
vt 0.4390496 0.7091255
vt 0.8254132 0.6463878
vt 0.8419421 0.6463878
vt 0.8419421 0.6768061
vt 0.8254132 0.6768061
vt 0.8078513 0.6463878
vt 0.8243802 0.6463878
vt 0.8243802 0.6768061
vt 0.8078513 0.6768061
vt 0.4039256 0.6463878
vt 0.4204545 0.6463878
vt 0.4204545 0.6768061
vt 0.4039256 0.6768061
vt 0.5268595 0.6787072
vt 0.5433884 0.6787072
vt 0.5433884 0.7091255
vt 0.5268595 0.7091255
vt 0.8254132 0.6140684
vt 0.8419421 0.6140684
vt 0.8419421 0.6444867
vt 0.8254132 0.6444867
vt 0.8078513 0.6140684
vt 0.8243802 0.6140684
vt 0.8243802 0.6444867
vt 0.8078513 0.6444867
vt 0.4039256 0.6140684
vt 0.4204545 0.6140684
vt 0.4204545 0.6444867
vt 0.4039256 0.6444867
vt 0.2809917 0.6463878
vt 0.2975207 0.6463878
vt 0.2975207 0.6768061
vt 0.2809917 0.6768061
vt 0.3336777 0.9695817
vt 0.3502066 0.9695817
vt 0.3502066 1
vt 0.3336777 1
vt 0.2809917 0.6140684
vt 0.2975207 0.6140684
vt 0.2975207 0.6444867
vt 0.2809917 0.6444867
vt 0.4566116 0.6463878
vt 0.4731405 0.6463878
vt 0.4731405 0.6768061
vt 0.4566116 0.6768061
vt 0.2458678 0.7110266
vt 0.2623967 0.7110266
vt 0.2623967 0.7414448
vt 0.2458678 0.7414448
vt 0.2283058 0.6787072
vt 0.2448347 0.6787072
vt 0.2448347 0.7091255
vt 0.2283058 0.7091255
vt 0.3512397 0.1939163
vt 0.3677686 0.1939163
vt 0.3677686 0.2243346
vt 0.3512397 0.2243346
vt 0.3688017 0.1939163
vt 0.3853306 0.1939163
vt 0.3853306 0.2243346
vt 0.3688017 0.2243346

# Normal
vn 0 0 -1

# Mesh description
g Controls_mesh_0003

# Faces
f 1/1/1 2/2/1 3/3/1 4/4/1
f 5/5/1 6/6/1 7/7/1 8/8/1
f 9/9/1 10/10/1 11/11/1 12/12/1
f 13/13/1 14/14/1 15/15/1 16/16/1
f 17/17/1 18/18/1 19/19/1 20/20/1
f 21/21/1 22/22/1 23/23/1 24/24/1
f 25/21/1 26/22/1 27/23/1 28/24/1
f 29/25/1 30/26/1 31/27/1 32/28/1
f 33/29/1 34/30/1 35/31/1 36/32/1
f 37/5/1 38/6/1 39/7/1 40/8/1
f 41/33/1 42/34/1 43/35/1 44/36/1
f 45/37/1 46/38/1 47/39/1 48/40/1
f 49/37/1 50/38/1 51/39/1 52/40/1
f 53/37/1 54/38/1 55/39/1 56/40/1
f 57/37/1 58/38/1 59/39/1 60/40/1
f 61/41/1 62/42/1 63/43/1 64/44/1
f 65/45/1 66/46/1 67/47/1 68/48/1
f 69/49/1 70/50/1 71/51/1 72/52/1
f 73/33/1 74/34/1 75/35/1 76/36/1
f 77/33/1 78/34/1 79/35/1 80/36/1
f 81/53/1 82/54/1 83/55/1 84/56/1
f 85/57/1 86/58/1 87/59/1 88/60/1
f 89/61/1 90/62/1 91/63/1 92/64/1
f 93/65/1 94/66/1 95/67/1 96/68/1
f 97/65/1 98/66/1 99/67/1 100/68/1
f 101/45/1 102/46/1 103/47/1 104/48/1
f 105/53/1 106/54/1 107/55/1 108/56/1
f 109/5/1 110/6/1 111/7/1 112/8/1
f 113/69/1 114/70/1 115/71/1 116/72/1
f 117/73/1 118/74/1 119/75/1 120/76/1
f 121/77/1 122/78/1 123/79/1 124/80/1
f 125/81/1 126/82/1 127/83/1 128/84/1
f 129/85/1 130/86/1 131/87/1 132/88/1
f 133/5/1 134/6/1 135/7/1 136/8/1
f 137/45/1 138/46/1 139/47/1 140/48/1
f 141/89/1 142/90/1 143/91/1 144/92/1
f 145/89/1 146/90/1 147/91/1 148/92/1
f 149/45/1 150/46/1 151/47/1 152/48/1
f 153/33/1 154/34/1 155/35/1 156/36/1
f 157/17/1 158/18/1 159/19/1 160/20/1
f 161/21/1 162/22/1 163/23/1 164/24/1
f 165/93/1 166/94/1 167/95/1 168/96/1
f 169/97/1 170/98/1 171/99/1 172/100/1
f 173/101/1 174/102/1 175/103/1 176/104/1
f 177/61/1 178/62/1 179/63/1 180/64/1
f 181/65/1 182/66/1 183/67/1 184/68/1
f 185/105/1 186/106/1 187/107/1 188/108/1
f 189/109/1 190/110/1 191/111/1 192/112/1
f 193/113/1 194/114/1 195/115/1 196/116/1
f 197/9/1 198/10/1 199/11/1 200/12/1
f 201/117/1 202/118/1 203/119/1 204/120/1
f 205/121/1 206/122/1 207/123/1 208/124/1
f 209/121/1 210/122/1 211/123/1 212/124/1
f 213/121/1 214/122/1 215/123/1 216/124/1
f 217/125/1 218/126/1 219/127/1 220/128/1
f 221/129/1 222/130/1 223/131/1 224/132/1
f 225/49/1 226/50/1 227/51/1 228/52/1
f 229/37/1 230/38/1 231/39/1 232/40/1
f 233/133/1 234/134/1 235/135/1 236/136/1
f 237/93/1 238/94/1 239/95/1 240/96/1
f 241/121/1 242/122/1 243/123/1 244/124/1
f 245/121/1 246/122/1 247/123/1 248/124/1
f 249/121/1 250/122/1 251/123/1 252/124/1
f 253/93/1 254/94/1 255/95/1 256/96/1
f 257/1/1 258/2/1 259/3/1 260/4/1
f 261/137/1 262/138/1 263/139/1 264/140/1
f 265/141/1 266/142/1 267/143/1 268/144/1
f 269/41/1 270/42/1 271/43/1 272/44/1
f 273/145/1 274/146/1 275/147/1 276/148/1
f 277/149/1 278/150/1 279/151/1 280/152/1
f 281/1/1 282/2/1 283/3/1 284/4/1
f 285/9/1 286/10/1 287/11/1 288/12/1
f 289/9/1 290/10/1 291/11/1 292/12/1
f 293/153/1 294/154/1 295/155/1 296/156/1
f 297/41/1 298/42/1 299/43/1 300/44/1
f 301/49/1 302/50/1 303/51/1 304/52/1
f 305/49/1 306/50/1 307/51/1 308/52/1
f 309/89/1 310/90/1 311/91/1 312/92/1
f 313/97/1 314/98/1 315/99/1 316/100/1
f 317/157/1 318/158/1 319/159/1 320/160/1
f 321/161/1 322/162/1 323/163/1 324/164/1
f 325/161/1 326/162/1 327/163/1 328/164/1
f 329/161/1 330/162/1 331/163/1 332/164/1
f 333/161/1 334/162/1 335/163/1 336/164/1
f 337/161/1 338/162/1 339/163/1 340/164/1
f 341/161/1 342/162/1 343/163/1 344/164/1
f 345/161/1 346/162/1 347/163/1 348/164/1
f 349/161/1 350/162/1 351/163/1 352/164/1
f 353/161/1 354/162/1 355/163/1 356/164/1
f 357/161/1 358/162/1 359/163/1 360/164/1
f 361/161/1 362/162/1 363/163/1 364/164/1
f 365/161/1 366/162/1 367/163/1 368/164/1
f 369/161/1 370/162/1 371/163/1 372/164/1
f 373/161/1 374/162/1 375/163/1 376/164/1
f 377/161/1 378/162/1 379/163/1 380/164/1
f 381/161/1 382/162/1 383/163/1 384/164/1
f 385/161/1 386/162/1 387/163/1 388/164/1
f 389/161/1 390/162/1 391/163/1 392/164/1
f 393/161/1 394/162/1 395/163/1 396/164/1
f 397/161/1 398/162/1 399/163/1 400/164/1
f 401/161/1 402/162/1 403/163/1 404/164/1
f 405/161/1 406/162/1 407/163/1 408/164/1
f 409/161/1 410/162/1 411/163/1 412/164/1
f 413/161/1 414/162/1 415/163/1 416/164/1
f 417/161/1 418/162/1 419/163/1 420/164/1
f 421/165/1 422/166/1 423/167/1 424/168/1
f 425/165/1 426/166/1 427/167/1 428/168/1
f 429/165/1 430/166/1 431/167/1 432/168/1
f 433/165/1 434/166/1 435/167/1 436/168/1
f 437/165/1 438/166/1 439/167/1 440/168/1
f 441/165/1 442/166/1 443/167/1 444/168/1
f 445/165/1 446/166/1 447/167/1 448/168/1
f 449/165/1 450/166/1 451/167/1 452/168/1
f 453/165/1 454/166/1 455/167/1 456/168/1
f 457/165/1 458/166/1 459/167/1 460/168/1
f 461/165/1 462/166/1 463/167/1 464/168/1
f 465/165/1 466/166/1 467/167/1 468/168/1
f 469/165/1 470/166/1 471/167/1 472/168/1
f 473/165/1 474/166/1 475/167/1 476/168/1
f 477/165/1 478/166/1 479/167/1 480/168/1
f 481/165/1 482/166/1 483/167/1 484/168/1
f 485/165/1 486/166/1 487/167/1 488/168/1
f 489/165/1 490/166/1 491/167/1 492/168/1
f 493/165/1 494/166/1 495/167/1 496/168/1
f 497/165/1 498/166/1 499/167/1 500/168/1
f 501/165/1 502/166/1 503/167/1 504/168/1
f 505/165/1 506/166/1 507/167/1 508/168/1
f 509/165/1 510/166/1 511/167/1 512/168/1
f 513/165/1 514/166/1 515/167/1 516/168/1
f 517/165/1 518/166/1 519/167/1 520/168/1

