# Tiled2Unity generated file. Do not modify by hand.
# Wavefront file for 'FarmHouse1_mesh_0002.obj'

# Vertices (Count = 856)
v -32 -2 0
v -33 -2 0
v -33 -1 0
v -32 -1 0
v -25 -2 0
v -26 -2 0
v -26 -1 0
v -25 -1 0
v -24 -2 0
v -25 -2 0
v -25 -1 0
v -24 -1 0
v -18 -2 0
v -19 -2 0
v -19 -1 0
v -18 -1 0
v -28 -3 0
v -29 -3 0
v -29 -2 0
v -28 -2 0
v -10 -3 0
v -11 -3 0
v -11 -2 0
v -10 -2 0
v -9 -3 0
v -10 -3 0
v -10 -2 0
v -9 -2 0
v -5 -3 0
v -6 -3 0
v -6 -2 0
v -5 -2 0
v -4 -3 0
v -5 -3 0
v -5 -2 0
v -4 -2 0
v -37 -4 0
v -38 -4 0
v -38 -3 0
v -37 -3 0
v -34 -4 0
v -35 -4 0
v -35 -3 0
v -34 -3 0
v -33 -6 0
v -34 -6 0
v -34 -5 0
v -33 -5 0
v -32 -6 0
v -33 -6 0
v -33 -5 0
v -32 -5 0
v -29 -6 0
v -30 -6 0
v -30 -5 0
v -29 -5 0
v -23 -6 0
v -24 -6 0
v -24 -5 0
v -23 -5 0
v -22 -6 0
v -23 -6 0
v -23 -5 0
v -22 -5 0
v -21 -6 0
v -22 -6 0
v -22 -5 0
v -21 -5 0
v -20 -6 0
v -21 -6 0
v -21 -5 0
v -20 -5 0
v -19 -6 0
v -20 -6 0
v -20 -5 0
v -19 -5 0
v -18 -6 0
v -19 -6 0
v -19 -5 0
v -18 -5 0
v -17 -6 0
v -18 -6 0
v -18 -5 0
v -17 -5 0
v -16 -6 0
v -17 -6 0
v -17 -5 0
v -16 -5 0
v -15 -6 0
v -16 -6 0
v -16 -5 0
v -15 -5 0
v -31 -7 0
v -32 -7 0
v -32 -6 0
v -31 -6 0
v -26 -7 0
v -27 -7 0
v -27 -6 0
v -26 -6 0
v -24 -7 0
v -25 -7 0
v -25 -6 0
v -24 -6 0
v -23 -7 0
v -24 -7 0
v -24 -6 0
v -23 -6 0
v -22 -7 0
v -23 -7 0
v -23 -6 0
v -22 -6 0
v -21 -7 0
v -22 -7 0
v -22 -6 0
v -21 -6 0
v -20 -7 0
v -21 -7 0
v -21 -6 0
v -20 -6 0
v -19 -7 0
v -20 -7 0
v -20 -6 0
v -19 -6 0
v -18 -7 0
v -19 -7 0
v -19 -6 0
v -18 -6 0
v -17 -7 0
v -18 -7 0
v -18 -6 0
v -17 -6 0
v -16 -7 0
v -17 -7 0
v -17 -6 0
v -16 -6 0
v -15 -7 0
v -16 -7 0
v -16 -6 0
v -15 -6 0
v -14 -7 0
v -15 -7 0
v -15 -6 0
v -14 -6 0
v -32 -8 0
v -33 -8 0
v -33 -7 0
v -32 -7 0
v -31 -8 0
v -32 -8 0
v -32 -7 0
v -31 -7 0
v -30 -8 0
v -31 -8 0
v -31 -7 0
v -30 -7 0
v -29 -8 0
v -30 -8 0
v -30 -7 0
v -29 -7 0
v -28 -8 0
v -29 -8 0
v -29 -7 0
v -28 -7 0
v -27 -8 0
v -28 -8 0
v -28 -7 0
v -27 -7 0
v -26 -8 0
v -27 -8 0
v -27 -7 0
v -26 -7 0
v -25 -8 0
v -26 -8 0
v -26 -7 0
v -25 -7 0
v -24 -8 0
v -25 -8 0
v -25 -7 0
v -24 -7 0
v -23 -8 0
v -24 -8 0
v -24 -7 0
v -23 -7 0
v -22 -8 0
v -23 -8 0
v -23 -7 0
v -22 -7 0
v -21 -8 0
v -22 -8 0
v -22 -7 0
v -21 -7 0
v -20 -8 0
v -21 -8 0
v -21 -7 0
v -20 -7 0
v -19 -8 0
v -20 -8 0
v -20 -7 0
v -19 -7 0
v -18 -8 0
v -19 -8 0
v -19 -7 0
v -18 -7 0
v -17 -8 0
v -18 -8 0
v -18 -7 0
v -17 -7 0
v -16 -8 0
v -17 -8 0
v -17 -7 0
v -16 -7 0
v -15 -8 0
v -16 -8 0
v -16 -7 0
v -15 -7 0
v -14 -8 0
v -15 -8 0
v -15 -7 0
v -14 -7 0
v -9 -8 0
v -10 -8 0
v -10 -7 0
v -9 -7 0
v -3 -8 0
v -4 -8 0
v -4 -7 0
v -3 -7 0
v -37 -9 0
v -38 -9 0
v -38 -8 0
v -37 -8 0
v -32 -9 0
v -33 -9 0
v -33 -8 0
v -32 -8 0
v -31 -9 0
v -32 -9 0
v -32 -8 0
v -31 -8 0
v -30 -9 0
v -31 -9 0
v -31 -8 0
v -30 -8 0
v -29 -9 0
v -30 -9 0
v -30 -8 0
v -29 -8 0
v -28 -9 0
v -29 -9 0
v -29 -8 0
v -28 -8 0
v -27 -9 0
v -28 -9 0
v -28 -8 0
v -27 -8 0
v -26 -9 0
v -27 -9 0
v -27 -8 0
v -26 -8 0
v -25 -9 0
v -26 -9 0
v -26 -8 0
v -25 -8 0
v -24 -9 0
v -25 -9 0
v -25 -8 0
v -24 -8 0
v -23 -9 0
v -24 -9 0
v -24 -8 0
v -23 -8 0
v -22 -9 0
v -23 -9 0
v -23 -8 0
v -22 -8 0
v -21 -9 0
v -22 -9 0
v -22 -8 0
v -21 -8 0
v -20 -9 0
v -21 -9 0
v -21 -8 0
v -20 -8 0
v -19 -9 0
v -20 -9 0
v -20 -8 0
v -19 -8 0
v -18 -9 0
v -19 -9 0
v -19 -8 0
v -18 -8 0
v -17 -9 0
v -18 -9 0
v -18 -8 0
v -17 -8 0
v -16 -9 0
v -17 -9 0
v -17 -8 0
v -16 -8 0
v -15 -9 0
v -16 -9 0
v -16 -8 0
v -15 -8 0
v -14 -9 0
v -15 -9 0
v -15 -8 0
v -14 -8 0
v -2 -9 0
v -3 -9 0
v -3 -8 0
v -2 -8 0
v -32 -10 0
v -33 -10 0
v -33 -9 0
v -32 -9 0
v -31 -10 0
v -32 -10 0
v -32 -9 0
v -31 -9 0
v -30 -10 0
v -31 -10 0
v -31 -9 0
v -30 -9 0
v -29 -10 0
v -30 -10 0
v -30 -9 0
v -29 -9 0
v -28 -10 0
v -29 -10 0
v -29 -9 0
v -28 -9 0
v -27 -10 0
v -28 -10 0
v -28 -9 0
v -27 -9 0
v -26 -10 0
v -27 -10 0
v -27 -9 0
v -26 -9 0
v -25 -10 0
v -26 -10 0
v -26 -9 0
v -25 -9 0
v -24 -10 0
v -25 -10 0
v -25 -9 0
v -24 -9 0
v -23 -10 0
v -24 -10 0
v -24 -9 0
v -23 -9 0
v -22 -10 0
v -23 -10 0
v -23 -9 0
v -22 -9 0
v -21 -10 0
v -22 -10 0
v -22 -9 0
v -21 -9 0
v -20 -10 0
v -21 -10 0
v -21 -9 0
v -20 -9 0
v -19 -10 0
v -20 -10 0
v -20 -9 0
v -19 -9 0
v -18 -10 0
v -19 -10 0
v -19 -9 0
v -18 -9 0
v -17 -10 0
v -18 -10 0
v -18 -9 0
v -17 -9 0
v -16 -10 0
v -17 -10 0
v -17 -9 0
v -16 -9 0
v -15 -10 0
v -16 -10 0
v -16 -9 0
v -15 -9 0
v -14 -10 0
v -15 -10 0
v -15 -9 0
v -14 -9 0
v -32 -11 0
v -33 -11 0
v -33 -10 0
v -32 -10 0
v -31 -11 0
v -32 -11 0
v -32 -10 0
v -31 -10 0
v -30 -11 0
v -31 -11 0
v -31 -10 0
v -30 -10 0
v -29 -11 0
v -30 -11 0
v -30 -10 0
v -29 -10 0
v -28 -11 0
v -29 -11 0
v -29 -10 0
v -28 -10 0
v -27 -11 0
v -28 -11 0
v -28 -10 0
v -27 -10 0
v -26 -11 0
v -27 -11 0
v -27 -10 0
v -26 -10 0
v -25 -11 0
v -26 -11 0
v -26 -10 0
v -25 -10 0
v -24 -11 0
v -25 -11 0
v -25 -10 0
v -24 -10 0
v -23 -11 0
v -24 -11 0
v -24 -10 0
v -23 -10 0
v -22 -11 0
v -23 -11 0
v -23 -10 0
v -22 -10 0
v -21 -11 0
v -22 -11 0
v -22 -10 0
v -21 -10 0
v -20 -11 0
v -21 -11 0
v -21 -10 0
v -20 -10 0
v -19 -11 0
v -20 -11 0
v -20 -10 0
v -19 -10 0
v -18 -11 0
v -19 -11 0
v -19 -10 0
v -18 -10 0
v -17 -11 0
v -18 -11 0
v -18 -10 0
v -17 -10 0
v -16 -11 0
v -17 -11 0
v -17 -10 0
v -16 -10 0
v -15 -11 0
v -16 -11 0
v -16 -10 0
v -15 -10 0
v -14 -11 0
v -15 -11 0
v -15 -10 0
v -14 -10 0
v -32 -12 0
v -33 -12 0
v -33 -11 0
v -32 -11 0
v -31 -12 0
v -32 -12 0
v -32 -11 0
v -31 -11 0
v -26 -12 0
v -27 -12 0
v -27 -11 0
v -26 -11 0
v -25 -12 0
v -26 -12 0
v -26 -11 0
v -25 -11 0
v -24 -12 0
v -25 -12 0
v -25 -11 0
v -24 -11 0
v -23 -12 0
v -24 -12 0
v -24 -11 0
v -23 -11 0
v -22 -12 0
v -23 -12 0
v -23 -11 0
v -22 -11 0
v -21 -12 0
v -22 -12 0
v -22 -11 0
v -21 -11 0
v -20 -12 0
v -21 -12 0
v -21 -11 0
v -20 -11 0
v -19 -12 0
v -20 -12 0
v -20 -11 0
v -19 -11 0
v -18 -12 0
v -19 -12 0
v -19 -11 0
v -18 -11 0
v -17 -12 0
v -18 -12 0
v -18 -11 0
v -17 -11 0
v -16 -12 0
v -17 -12 0
v -17 -11 0
v -16 -11 0
v -15 -12 0
v -16 -12 0
v -16 -11 0
v -15 -11 0
v -14 -12 0
v -15 -12 0
v -15 -11 0
v -14 -11 0
v -10 -12 0
v -11 -12 0
v -11 -11 0
v -10 -11 0
v -9 -12 0
v -10 -12 0
v -10 -11 0
v -9 -11 0
v -5 -12 0
v -6 -12 0
v -6 -11 0
v -5 -11 0
v -36 -13 0
v -37 -13 0
v -37 -12 0
v -36 -12 0
v -20 -13 0
v -21 -13 0
v -21 -12 0
v -20 -12 0
v -19 -13 0
v -20 -13 0
v -20 -12 0
v -19 -12 0
v -18 -13 0
v -19 -13 0
v -19 -12 0
v -18 -12 0
v -5 -13 0
v -6 -13 0
v -6 -12 0
v -5 -12 0
v -21 -14 0
v -22 -14 0
v -22 -13 0
v -21 -13 0
v -20 -14 0
v -21 -14 0
v -21 -13 0
v -20 -13 0
v -19 -14 0
v -20 -14 0
v -20 -13 0
v -19 -13 0
v -18 -14 0
v -19 -14 0
v -19 -13 0
v -18 -13 0
v -17 -14 0
v -18 -14 0
v -18 -13 0
v -17 -13 0
v -2 -14 0
v -3 -14 0
v -3 -13 0
v -2 -13 0
v -21 -15 0
v -22 -15 0
v -22 -14 0
v -21 -14 0
v -20 -15 0
v -21 -15 0
v -21 -14 0
v -20 -14 0
v -19 -15 0
v -20 -15 0
v -20 -14 0
v -19 -14 0
v -18 -15 0
v -19 -15 0
v -19 -14 0
v -18 -14 0
v -17 -15 0
v -18 -15 0
v -18 -14 0
v -17 -14 0
v -21 -16 0
v -22 -16 0
v -22 -15 0
v -21 -15 0
v -20 -16 0
v -21 -16 0
v -21 -15 0
v -20 -15 0
v -19 -16 0
v -20 -16 0
v -20 -15 0
v -19 -15 0
v -18 -16 0
v -19 -16 0
v -19 -15 0
v -18 -15 0
v -17 -16 0
v -18 -16 0
v -18 -15 0
v -17 -15 0
v -12 -16 0
v -13 -16 0
v -13 -15 0
v -12 -15 0
v -36 -17 0
v -37 -17 0
v -37 -16 0
v -36 -16 0
v -20 -17 0
v -21 -17 0
v -21 -16 0
v -20 -16 0
v -19 -17 0
v -20 -17 0
v -20 -16 0
v -19 -16 0
v -18 -17 0
v -19 -17 0
v -19 -16 0
v -18 -16 0
v -8 -17 0
v -9 -17 0
v -9 -16 0
v -8 -16 0
v -2 -17 0
v -3 -17 0
v -3 -16 0
v -2 -16 0
v -32 -18 0
v -33 -18 0
v -33 -17 0
v -32 -17 0
v -29 -18 0
v -30 -18 0
v -30 -17 0
v -29 -17 0
v -21 -18 0
v -22 -18 0
v -22 -17 0
v -21 -17 0
v -20 -18 0
v -21 -18 0
v -21 -17 0
v -20 -17 0
v -19 -18 0
v -20 -18 0
v -20 -17 0
v -19 -17 0
v -18 -18 0
v -19 -18 0
v -19 -17 0
v -18 -17 0
v -38 -19 0
v -39 -19 0
v -39 -18 0
v -38 -18 0
v -35 -19 0
v -36 -19 0
v -36 -18 0
v -35 -18 0
v -34 -19 0
v -35 -19 0
v -35 -18 0
v -34 -18 0
v -25 -19 0
v -26 -19 0
v -26 -18 0
v -25 -18 0
v -21 -19 0
v -22 -19 0
v -22 -18 0
v -21 -18 0
v -20 -19 0
v -21 -19 0
v -21 -18 0
v -20 -18 0
v -19 -19 0
v -20 -19 0
v -20 -18 0
v -19 -18 0
v -18 -19 0
v -19 -19 0
v -19 -18 0
v -18 -18 0
v -12 -19 0
v -13 -19 0
v -13 -18 0
v -12 -18 0
v -21 -20 0
v -22 -20 0
v -22 -19 0
v -21 -19 0
v -20 -20 0
v -21 -20 0
v -21 -19 0
v -20 -19 0
v -19 -20 0
v -20 -20 0
v -20 -19 0
v -19 -19 0
v -18 -20 0
v -19 -20 0
v -19 -19 0
v -18 -19 0
v -4 -20 0
v -5 -20 0
v -5 -19 0
v -4 -19 0
v -33 -21 0
v -34 -21 0
v -34 -20 0
v -33 -20 0
v -31 -21 0
v -32 -21 0
v -32 -20 0
v -31 -20 0
v -29 -21 0
v -30 -21 0
v -30 -20 0
v -29 -20 0
v -21 -21 0
v -22 -21 0
v -22 -20 0
v -21 -20 0
v -20 -21 0
v -21 -21 0
v -21 -20 0
v -20 -20 0
v -19 -21 0
v -20 -21 0
v -20 -20 0
v -19 -20 0
v -18 -21 0
v -19 -21 0
v -19 -20 0
v -18 -20 0
v -33 -22 0
v -34 -22 0
v -34 -21 0
v -33 -21 0
v -21 -22 0
v -22 -22 0
v -22 -21 0
v -21 -21 0
v -20 -22 0
v -21 -22 0
v -21 -21 0
v -20 -21 0
v -19 -22 0
v -20 -22 0
v -20 -21 0
v -19 -21 0
v -18 -22 0
v -19 -22 0
v -19 -21 0
v -18 -21 0
v -9 -22 0
v -10 -22 0
v -10 -21 0
v -9 -21 0
v -37 -23 0
v -38 -23 0
v -38 -22 0
v -37 -22 0
v -31 -23 0
v -32 -23 0
v -32 -22 0
v -31 -22 0
v -20 -23 0
v -21 -23 0
v -21 -22 0
v -20 -22 0
v -19 -23 0
v -20 -23 0
v -20 -22 0
v -19 -22 0
v -18 -23 0
v -19 -23 0
v -19 -22 0
v -18 -22 0
v -17 -23 0
v -18 -23 0
v -18 -22 0
v -17 -22 0
v -12 -23 0
v -13 -23 0
v -13 -22 0
v -12 -22 0
v -34 -24 0
v -35 -24 0
v -35 -23 0
v -34 -23 0
v -31 -24 0
v -32 -24 0
v -32 -23 0
v -31 -23 0
v -28 -24 0
v -29 -24 0
v -29 -23 0
v -28 -23 0
v -20 -24 0
v -21 -24 0
v -21 -23 0
v -20 -23 0
v -19 -24 0
v -20 -24 0
v -20 -23 0
v -19 -23 0
v -18 -24 0
v -19 -24 0
v -19 -23 0
v -18 -23 0
v -17 -24 0
v -18 -24 0
v -18 -23 0
v -17 -23 0
v -1 -24 0
v -2 -24 0
v -2 -23 0
v -1 -23 0
v -20 -25 0
v -21 -25 0
v -21 -24 0
v -20 -24 0
v -19 -25 0
v -20 -25 0
v -20 -24 0
v -19 -24 0
v -18 -25 0
v -19 -25 0
v -19 -24 0
v -18 -24 0
v -17 -25 0
v -18 -25 0
v -18 -24 0
v -17 -24 0

# Texture cooridinates (Count = 152)
vt 0.2634298 0.6140684
vt 0.2799587 0.6140684
vt 0.2799587 0.6444867
vt 0.2634298 0.6444867
vt 0.2458678 0.6140684
vt 0.2623967 0.6140684
vt 0.2623967 0.6444867
vt 0.2458678 0.6444867
vt 0.3161157 0.6140684
vt 0.3326446 0.6140684
vt 0.3326446 0.6444867
vt 0.3161157 0.6444867
vt 0.2458678 0.8079848
vt 0.2623967 0.8079848
vt 0.2623967 0.838403
vt 0.2458678 0.838403
vt 0.2283058 0.6140684
vt 0.2448347 0.6140684
vt 0.2448347 0.6444867
vt 0.2283058 0.6444867
vt 0.2985537 0.6140684
vt 0.3150826 0.6140684
vt 0.3150826 0.6444867
vt 0.2985537 0.6444867
vt 0.9307851 0.3555133
vt 0.947314 0.3555133
vt 0.947314 0.3859316
vt 0.9307851 0.3859316
vt 0.2809917 0.8079848
vt 0.2975207 0.8079848
vt 0.2975207 0.838403
vt 0.2809917 0.838403
vt 0.6849173 0.4847909
vt 0.7014463 0.4847909
vt 0.7014463 0.5152091
vt 0.6849173 0.5152091
vt 0.3688017 0.2908745
vt 0.3853306 0.2908745
vt 0.3853306 0.3212928
vt 0.3688017 0.3212928
vt 0.3512397 0.2908745
vt 0.3677686 0.2908745
vt 0.3677686 0.3212928
vt 0.3512397 0.3212928
vt 0.7024794 0.4847909
vt 0.7190083 0.4847909
vt 0.7190083 0.5152091
vt 0.7024794 0.5152091
vt 0.6673554 0.4847909
vt 0.6838843 0.4847909
vt 0.6838843 0.5152091
vt 0.6673554 0.5152091
vt 0.4390496 0.2585551
vt 0.4555785 0.2585551
vt 0.4555785 0.2889734
vt 0.4390496 0.2889734
vt 0.2809917 0.6140684
vt 0.2975207 0.6140684
vt 0.2975207 0.6444867
vt 0.2809917 0.6444867
vt 0.4566116 0.2585551
vt 0.4731405 0.2585551
vt 0.4731405 0.2889734
vt 0.4566116 0.2889734
vt 0.4214876 0.2585551
vt 0.4380165 0.2585551
vt 0.4380165 0.2889734
vt 0.4214876 0.2889734
vt 0.7024794 0.4201521
vt 0.7190083 0.4201521
vt 0.7190083 0.4505703
vt 0.7024794 0.4505703
vt 0.6849173 0.4201521
vt 0.7014463 0.4201521
vt 0.7014463 0.4505703
vt 0.6849173 0.4505703
vt 0.6673554 0.4201521
vt 0.6838843 0.4201521
vt 0.6838843 0.4505703
vt 0.6673554 0.4505703
vt 0.6497934 0.4847909
vt 0.6663223 0.4847909
vt 0.6663223 0.5152091
vt 0.6497934 0.5152091
vt 0.5971074 0.4847909
vt 0.6136364 0.4847909
vt 0.6136364 0.5152091
vt 0.5971074 0.5152091
vt 0.1580579 0.6787072
vt 0.1745868 0.6787072
vt 0.1745868 0.7091255
vt 0.1580579 0.7091255
vt 0.1229339 0.6787072
vt 0.1394628 0.6787072
vt 0.1394628 0.7091255
vt 0.1229339 0.7091255
vt 0.6146694 0.4847909
vt 0.6311983 0.4847909
vt 0.6311983 0.5152091
vt 0.6146694 0.5152091
vt 0.9132231 0.5494297
vt 0.9297521 0.5494297
vt 0.9297521 0.5798479
vt 0.9132231 0.5798479
vt 0.8956612 0.5494297
vt 0.9121901 0.5494297
vt 0.9121901 0.5798479
vt 0.8956612 0.5798479
vt 0.1580579 0.6463878
vt 0.1745868 0.6463878
vt 0.1745868 0.6768061
vt 0.1580579 0.6768061
vt 0.1404959 0.6463878
vt 0.1570248 0.6463878
vt 0.1570248 0.6768061
vt 0.1404959 0.6768061
vt 0.1229339 0.6463878
vt 0.1394628 0.6463878
vt 0.1394628 0.6768061
vt 0.1229339 0.6768061
vt 0.08780992 0.6463878
vt 0.1043388 0.6463878
vt 0.1043388 0.6768061
vt 0.08780992 0.6768061
vt 0.1053719 0.6463878
vt 0.1219008 0.6463878
vt 0.1219008 0.6768061
vt 0.1053719 0.6768061
vt 0.1580579 0.6140684
vt 0.1745868 0.6140684
vt 0.1745868 0.6444867
vt 0.1580579 0.6444867
vt 0.08780992 0.6787072
vt 0.1043388 0.6787072
vt 0.1043388 0.7091255
vt 0.08780992 0.7091255
vt 0.1053719 0.6787072
vt 0.1219008 0.6787072
vt 0.1219008 0.7091255
vt 0.1053719 0.7091255
vt 0.1229339 0.6140684
vt 0.1394628 0.6140684
vt 0.1394628 0.6444867
vt 0.1229339 0.6444867
vt 0.9307851 0.2908745
vt 0.947314 0.2908745
vt 0.947314 0.3212928
vt 0.9307851 0.3212928
vt 0.9307851 0.2585551
vt 0.947314 0.2585551
vt 0.947314 0.2889734
vt 0.9307851 0.2889734

# Normal
vn 0 0 -1

# Mesh description
g FarmHouse1_mesh_0002

# Faces
f 1/1/1 2/2/1 3/3/1 4/4/1
f 5/5/1 6/6/1 7/7/1 8/8/1
f 9/9/1 10/10/1 11/11/1 12/12/1
f 13/13/1 14/14/1 15/15/1 16/16/1
f 17/17/1 18/18/1 19/19/1 20/20/1
f 21/1/1 22/2/1 23/3/1 24/4/1
f 25/5/1 26/6/1 27/7/1 28/8/1
f 29/21/1 30/22/1 31/23/1 32/24/1
f 33/1/1 34/2/1 35/3/1 36/4/1
f 37/21/1 38/22/1 39/23/1 40/24/1
f 41/25/1 42/26/1 43/27/1 44/28/1
f 45/5/1 46/6/1 47/7/1 48/8/1
f 49/21/1 50/22/1 51/23/1 52/24/1
f 53/29/1 54/30/1 55/31/1 56/32/1
f 57/33/1 58/34/1 59/35/1 60/36/1
f 61/33/1 62/34/1 63/35/1 64/36/1
f 65/33/1 66/34/1 67/35/1 68/36/1
f 69/33/1 70/34/1 71/35/1 72/36/1
f 73/33/1 74/34/1 75/35/1 76/36/1
f 77/33/1 78/34/1 79/35/1 80/36/1
f 81/33/1 82/34/1 83/35/1 84/36/1
f 85/33/1 86/34/1 87/35/1 88/36/1
f 89/33/1 90/34/1 91/35/1 92/36/1
f 93/37/1 94/38/1 95/39/1 96/40/1
f 97/41/1 98/42/1 99/43/1 100/44/1
f 101/45/1 102/46/1 103/47/1 104/48/1
f 105/33/1 106/34/1 107/35/1 108/36/1
f 109/33/1 110/34/1 111/35/1 112/36/1
f 113/33/1 114/34/1 115/35/1 116/36/1
f 117/33/1 118/34/1 119/35/1 120/36/1
f 121/33/1 122/34/1 123/35/1 124/36/1
f 125/33/1 126/34/1 127/35/1 128/36/1
f 129/33/1 130/34/1 131/35/1 132/36/1
f 133/33/1 134/34/1 135/35/1 136/36/1
f 137/33/1 138/34/1 139/35/1 140/36/1
f 141/49/1 142/50/1 143/51/1 144/52/1
f 145/37/1 146/38/1 147/39/1 148/40/1
f 149/53/1 150/54/1 151/55/1 152/56/1
f 153/53/1 154/54/1 155/55/1 156/56/1
f 157/53/1 158/54/1 159/55/1 160/56/1
f 161/53/1 162/54/1 163/55/1 164/56/1
f 165/53/1 166/54/1 167/55/1 168/56/1
f 169/53/1 170/54/1 171/55/1 172/56/1
f 173/41/1 174/42/1 175/43/1 176/44/1
f 177/45/1 178/46/1 179/47/1 180/48/1
f 181/33/1 182/34/1 183/35/1 184/36/1
f 185/33/1 186/34/1 187/35/1 188/36/1
f 189/33/1 190/34/1 191/35/1 192/36/1
f 193/33/1 194/34/1 195/35/1 196/36/1
f 197/33/1 198/34/1 199/35/1 200/36/1
f 201/33/1 202/34/1 203/35/1 204/36/1
f 205/33/1 206/34/1 207/35/1 208/36/1
f 209/33/1 210/34/1 211/35/1 212/36/1
f 213/33/1 214/34/1 215/35/1 216/36/1
f 217/49/1 218/50/1 219/51/1 220/52/1
f 221/1/1 222/2/1 223/3/1 224/4/1
f 225/25/1 226/26/1 227/27/1 228/28/1
f 229/57/1 230/58/1 231/59/1 232/60/1
f 233/61/1 234/62/1 235/63/1 236/64/1
f 237/53/1 238/54/1 239/55/1 240/56/1
f 241/53/1 242/54/1 243/55/1 244/56/1
f 245/53/1 246/54/1 247/55/1 248/56/1
f 249/53/1 250/54/1 251/55/1 252/56/1
f 253/53/1 254/54/1 255/55/1 256/56/1
f 257/53/1 258/54/1 259/55/1 260/56/1
f 261/65/1 262/66/1 263/67/1 264/68/1
f 265/45/1 266/46/1 267/47/1 268/48/1
f 269/33/1 270/34/1 271/35/1 272/36/1
f 273/33/1 274/34/1 275/35/1 276/36/1
f 277/33/1 278/34/1 279/35/1 280/36/1
f 281/33/1 282/34/1 283/35/1 284/36/1
f 285/33/1 286/34/1 287/35/1 288/36/1
f 289/33/1 290/34/1 291/35/1 292/36/1
f 293/33/1 294/34/1 295/35/1 296/36/1
f 297/33/1 298/34/1 299/35/1 300/36/1
f 301/33/1 302/34/1 303/35/1 304/36/1
f 305/49/1 306/50/1 307/51/1 308/52/1
f 309/5/1 310/6/1 311/7/1 312/8/1
f 313/61/1 314/62/1 315/63/1 316/64/1
f 317/53/1 318/54/1 319/55/1 320/56/1
f 321/53/1 322/54/1 323/55/1 324/56/1
f 325/53/1 326/54/1 327/55/1 328/56/1
f 329/53/1 330/54/1 331/55/1 332/56/1
f 333/53/1 334/54/1 335/55/1 336/56/1
f 337/53/1 338/54/1 339/55/1 340/56/1
f 341/65/1 342/66/1 343/67/1 344/68/1
f 345/45/1 346/46/1 347/47/1 348/48/1
f 349/33/1 350/34/1 351/35/1 352/36/1
f 353/33/1 354/34/1 355/35/1 356/36/1
f 357/33/1 358/34/1 359/35/1 360/36/1
f 361/33/1 362/34/1 363/35/1 364/36/1
f 365/33/1 366/34/1 367/35/1 368/36/1
f 369/33/1 370/34/1 371/35/1 372/36/1
f 373/33/1 374/34/1 375/35/1 376/36/1
f 377/33/1 378/34/1 379/35/1 380/36/1
f 381/33/1 382/34/1 383/35/1 384/36/1
f 385/49/1 386/50/1 387/51/1 388/52/1
f 389/61/1 390/62/1 391/63/1 392/64/1
f 393/69/1 394/70/1 395/71/1 396/72/1
f 397/73/1 398/74/1 399/75/1 400/76/1
f 401/73/1 402/74/1 403/75/1 404/76/1
f 405/73/1 406/74/1 407/75/1 408/76/1
f 409/73/1 410/74/1 411/75/1 412/76/1
f 413/77/1 414/78/1 415/79/1 416/80/1
f 417/65/1 418/66/1 419/67/1 420/68/1
f 421/45/1 422/46/1 423/47/1 424/48/1
f 425/33/1 426/34/1 427/35/1 428/36/1
f 429/33/1 430/34/1 431/35/1 432/36/1
f 433/33/1 434/34/1 435/35/1 436/36/1
f 437/33/1 438/34/1 439/35/1 440/36/1
f 441/33/1 442/34/1 443/35/1 444/36/1
f 445/33/1 446/34/1 447/35/1 448/36/1
f 449/33/1 450/34/1 451/35/1 452/36/1
f 453/33/1 454/34/1 455/35/1 456/36/1
f 457/33/1 458/34/1 459/35/1 460/36/1
f 461/49/1 462/50/1 463/51/1 464/52/1
f 465/61/1 466/62/1 467/63/1 468/64/1
f 469/69/1 470/70/1 471/71/1 472/72/1
f 473/77/1 474/78/1 475/79/1 476/80/1
f 477/65/1 478/66/1 479/67/1 480/68/1
f 481/81/1 482/82/1 483/83/1 484/84/1
f 485/85/1 486/86/1 487/87/1 488/88/1
f 489/85/1 490/86/1 491/87/1 492/88/1
f 493/85/1 494/86/1 495/87/1 496/88/1
f 497/89/1 498/90/1 499/91/1 500/92/1
f 501/33/1 502/34/1 503/35/1 504/36/1
f 505/93/1 506/94/1 507/95/1 508/96/1
f 509/85/1 510/86/1 511/87/1 512/88/1
f 513/85/1 514/86/1 515/87/1 516/88/1
f 517/85/1 518/86/1 519/87/1 520/88/1
f 521/97/1 522/98/1 523/99/1 524/100/1
f 525/101/1 526/102/1 527/103/1 528/104/1
f 529/105/1 530/106/1 531/107/1 532/108/1
f 533/17/1 534/18/1 535/19/1 536/20/1
f 537/21/1 538/22/1 539/23/1 540/24/1
f 541/109/1 542/110/1 543/111/1 544/112/1
f 545/113/1 546/114/1 547/115/1 548/116/1
f 549/117/1 550/118/1 551/119/1 552/120/1
f 553/1/1 554/2/1 555/3/1 556/4/1
f 557/89/1 558/90/1 559/91/1 560/92/1
f 561/121/1 562/122/1 563/123/1 564/124/1
f 565/113/1 566/114/1 567/115/1 568/116/1
f 569/125/1 570/126/1 571/127/1 572/128/1
f 573/93/1 574/94/1 575/95/1 576/96/1
f 577/25/1 578/26/1 579/27/1 580/28/1
f 581/109/1 582/110/1 583/111/1 584/112/1
f 585/113/1 586/114/1 587/115/1 588/116/1
f 589/113/1 590/114/1 591/115/1 592/116/1
f 593/113/1 594/114/1 595/115/1 596/116/1
f 597/117/1 598/118/1 599/119/1 600/120/1
f 601/129/1 602/130/1 603/131/1 604/132/1
f 605/133/1 606/134/1 607/135/1 608/136/1
f 609/113/1 610/114/1 611/115/1 612/116/1
f 613/137/1 614/138/1 615/139/1 616/140/1
f 617/141/1 618/142/1 619/143/1 620/144/1
f 621/25/1 622/26/1 623/27/1 624/28/1
f 625/1/1 626/2/1 627/3/1 628/4/1
f 629/109/1 630/110/1 631/111/1 632/112/1
f 633/113/1 634/114/1 635/115/1 636/116/1
f 637/117/1 638/118/1 639/119/1 640/120/1
f 641/9/1 642/10/1 643/11/1 644/12/1
f 645/5/1 646/6/1 647/7/1 648/8/1
f 649/145/1 650/146/1 651/147/1 652/148/1
f 653/57/1 654/58/1 655/59/1 656/60/1
f 657/89/1 658/90/1 659/91/1 660/92/1
f 661/121/1 662/122/1 663/123/1 664/124/1
f 665/113/1 666/114/1 667/115/1 668/116/1
f 669/117/1 670/118/1 671/119/1 672/120/1
f 673/5/1 674/6/1 675/7/1 676/8/1
f 677/149/1 678/150/1 679/151/1 680/152/1
f 681/149/1 682/150/1 683/151/1 684/152/1
f 685/21/1 686/22/1 687/23/1 688/24/1
f 689/109/1 690/110/1 691/111/1 692/112/1
f 693/113/1 694/114/1 695/115/1 696/116/1
f 697/113/1 698/114/1 699/115/1 700/116/1
f 701/117/1 702/118/1 703/119/1 704/120/1
f 705/1/1 706/2/1 707/3/1 708/4/1
f 709/109/1 710/110/1 711/111/1 712/112/1
f 713/113/1 714/114/1 715/115/1 716/116/1
f 717/113/1 718/114/1 719/115/1 720/116/1
f 721/117/1 722/118/1 723/119/1 724/120/1
f 725/1/1 726/2/1 727/3/1 728/4/1
f 729/25/1 730/26/1 731/27/1 732/28/1
f 733/25/1 734/26/1 735/27/1 736/28/1
f 737/25/1 738/26/1 739/27/1 740/28/1
f 741/109/1 742/110/1 743/111/1 744/112/1
f 745/113/1 746/114/1 747/115/1 748/116/1
f 749/113/1 750/114/1 751/115/1 752/116/1
f 753/117/1 754/118/1 755/119/1 756/120/1
f 757/25/1 758/26/1 759/27/1 760/28/1
f 761/129/1 762/130/1 763/131/1 764/132/1
f 765/133/1 766/134/1 767/135/1 768/136/1
f 769/113/1 770/114/1 771/115/1 772/116/1
f 773/117/1 774/118/1 775/119/1 776/120/1
f 777/1/1 778/2/1 779/3/1 780/4/1
f 781/21/1 782/22/1 783/23/1 784/24/1
f 785/25/1 786/26/1 787/27/1 788/28/1
f 789/109/1 790/110/1 791/111/1 792/112/1
f 793/113/1 794/114/1 795/115/1 796/116/1
f 797/125/1 798/126/1 799/127/1 800/128/1
f 801/93/1 802/94/1 803/95/1 804/96/1
f 805/17/1 806/18/1 807/19/1 808/20/1
f 809/57/1 810/58/1 811/59/1 812/60/1
f 813/25/1 814/26/1 815/27/1 816/28/1
f 817/5/1 818/6/1 819/7/1 820/8/1
f 821/109/1 822/110/1 823/111/1 824/112/1
f 825/113/1 826/114/1 827/115/1 828/116/1
f 829/113/1 830/114/1 831/115/1 832/116/1
f 833/117/1 834/118/1 835/119/1 836/120/1
f 837/5/1 838/6/1 839/7/1 840/8/1
f 841/109/1 842/110/1 843/111/1 844/112/1
f 845/113/1 846/114/1 847/115/1 848/116/1
f 849/137/1 850/138/1 851/139/1 852/140/1
f 853/141/1 854/142/1 855/143/1 856/144/1

