# Tiled2Unity generated file. Do not modify by hand.
# Wavefront file for 'BurgEingang1_mesh_0003.obj'

# Vertices (Count = 800)
v -45 -2 0
v -46 -2 0
v -46 -1 0
v -45 -1 0
v -44 -2 0
v -45 -2 0
v -45 -1 0
v -44 -1 0
v -43 -2 0
v -44 -2 0
v -44 -1 0
v -43 -1 0
v -42 -2 0
v -43 -2 0
v -43 -1 0
v -42 -1 0
v -38 -2 0
v -39 -2 0
v -39 -1 0
v -38 -1 0
v -35 -2 0
v -36 -2 0
v -36 -1 0
v -35 -1 0
v -32 -2 0
v -33 -2 0
v -33 -1 0
v -32 -1 0
v -29 -2 0
v -30 -2 0
v -30 -1 0
v -29 -1 0
v -26 -2 0
v -27 -2 0
v -27 -1 0
v -26 -1 0
v -23 -2 0
v -24 -2 0
v -24 -1 0
v -23 -1 0
v -20 -2 0
v -21 -2 0
v -21 -1 0
v -20 -1 0
v -17 -2 0
v -18 -2 0
v -18 -1 0
v -17 -1 0
v -14 -2 0
v -15 -2 0
v -15 -1 0
v -14 -1 0
v -11 -2 0
v -12 -2 0
v -12 -1 0
v -11 -1 0
v -9 -2 0
v -10 -2 0
v -10 -1 0
v -9 -1 0
v -7 -2 0
v -8 -2 0
v -8 -1 0
v -7 -1 0
v -48 -3 0
v -49 -3 0
v -49 -2 0
v -48 -2 0
v -47 -3 0
v -48 -3 0
v -48 -2 0
v -47 -2 0
v -46 -3 0
v -47 -3 0
v -47 -2 0
v -46 -2 0
v -42 -3 0
v -43 -3 0
v -43 -2 0
v -42 -2 0
v -7 -3 0
v -8 -3 0
v -8 -2 0
v -7 -2 0
v -3 -3 0
v -4 -3 0
v -4 -2 0
v -3 -2 0
v -46 -4 0
v -47 -4 0
v -47 -3 0
v -46 -3 0
v -45 -4 0
v -46 -4 0
v -46 -3 0
v -45 -3 0
v -44 -4 0
v -45 -4 0
v -45 -3 0
v -44 -3 0
v -42 -4 0
v -43 -4 0
v -43 -3 0
v -42 -3 0
v -39 -4 0
v -40 -4 0
v -40 -3 0
v -39 -3 0
v -37 -4 0
v -38 -4 0
v -38 -3 0
v -37 -3 0
v -35 -4 0
v -36 -4 0
v -36 -3 0
v -35 -3 0
v -33 -4 0
v -34 -4 0
v -34 -3 0
v -33 -3 0
v -31 -4 0
v -32 -4 0
v -32 -3 0
v -31 -3 0
v -30 -4 0
v -31 -4 0
v -31 -3 0
v -30 -3 0
v -28 -4 0
v -29 -4 0
v -29 -3 0
v -28 -3 0
v -26 -4 0
v -27 -4 0
v -27 -3 0
v -26 -3 0
v -24 -4 0
v -25 -4 0
v -25 -3 0
v -24 -3 0
v -22 -4 0
v -23 -4 0
v -23 -3 0
v -22 -3 0
v -21 -4 0
v -22 -4 0
v -22 -3 0
v -21 -3 0
v -19 -4 0
v -20 -4 0
v -20 -3 0
v -19 -3 0
v -17 -4 0
v -18 -4 0
v -18 -3 0
v -17 -3 0
v -15 -4 0
v -16 -4 0
v -16 -3 0
v -15 -3 0
v -13 -4 0
v -14 -4 0
v -14 -3 0
v -13 -3 0
v -12 -4 0
v -13 -4 0
v -13 -3 0
v -12 -3 0
v -10 -4 0
v -11 -4 0
v -11 -3 0
v -10 -3 0
v -7 -4 0
v -8 -4 0
v -8 -3 0
v -7 -3 0
v -5 -4 0
v -6 -4 0
v -6 -3 0
v -5 -3 0
v -3 -4 0
v -4 -4 0
v -4 -3 0
v -3 -3 0
v -46 -5 0
v -47 -5 0
v -47 -4 0
v -46 -4 0
v -44 -5 0
v -45 -5 0
v -45 -4 0
v -44 -4 0
v -42 -5 0
v -43 -5 0
v -43 -4 0
v -42 -4 0
v -7 -5 0
v -8 -5 0
v -8 -4 0
v -7 -4 0
v -5 -5 0
v -6 -5 0
v -6 -4 0
v -5 -4 0
v -3 -5 0
v -4 -5 0
v -4 -4 0
v -3 -4 0
v -43 -7 0
v -44 -7 0
v -44 -6 0
v -43 -6 0
v -40 -7 0
v -41 -7 0
v -41 -6 0
v -40 -6 0
v -37 -7 0
v -38 -7 0
v -38 -6 0
v -37 -6 0
v -34 -7 0
v -35 -7 0
v -35 -6 0
v -34 -6 0
v -31 -7 0
v -32 -7 0
v -32 -6 0
v -31 -6 0
v -30 -7 0
v -31 -7 0
v -31 -6 0
v -30 -6 0
v -29 -7 0
v -30 -7 0
v -30 -6 0
v -29 -6 0
v -28 -7 0
v -29 -7 0
v -29 -6 0
v -28 -6 0
v -27 -7 0
v -28 -7 0
v -28 -6 0
v -27 -6 0
v -26 -7 0
v -27 -7 0
v -27 -6 0
v -26 -6 0
v -25 -7 0
v -26 -7 0
v -26 -6 0
v -25 -6 0
v -24 -7 0
v -25 -7 0
v -25 -6 0
v -24 -6 0
v -23 -7 0
v -24 -7 0
v -24 -6 0
v -23 -6 0
v -22 -7 0
v -23 -7 0
v -23 -6 0
v -22 -6 0
v -21 -7 0
v -22 -7 0
v -22 -6 0
v -21 -6 0
v -20 -7 0
v -21 -7 0
v -21 -6 0
v -20 -6 0
v -19 -7 0
v -20 -7 0
v -20 -6 0
v -19 -6 0
v -18 -7 0
v -19 -7 0
v -19 -6 0
v -18 -6 0
v -17 -7 0
v -18 -7 0
v -18 -6 0
v -17 -6 0
v -15 -7 0
v -16 -7 0
v -16 -6 0
v -15 -6 0
v -12 -7 0
v -13 -7 0
v -13 -6 0
v -12 -6 0
v -9 -7 0
v -10 -7 0
v -10 -6 0
v -9 -6 0
v -6 -7 0
v -7 -7 0
v -7 -6 0
v -6 -6 0
v -43 -8 0
v -44 -8 0
v -44 -7 0
v -43 -7 0
v -40 -8 0
v -41 -8 0
v -41 -7 0
v -40 -7 0
v -37 -8 0
v -38 -8 0
v -38 -7 0
v -37 -7 0
v -34 -8 0
v -35 -8 0
v -35 -7 0
v -34 -7 0
v -15 -8 0
v -16 -8 0
v -16 -7 0
v -15 -7 0
v -12 -8 0
v -13 -8 0
v -13 -7 0
v -12 -7 0
v -9 -8 0
v -10 -8 0
v -10 -7 0
v -9 -7 0
v -6 -8 0
v -7 -8 0
v -7 -7 0
v -6 -7 0
v -43 -9 0
v -44 -9 0
v -44 -8 0
v -43 -8 0
v -40 -9 0
v -41 -9 0
v -41 -8 0
v -40 -8 0
v -37 -9 0
v -38 -9 0
v -38 -8 0
v -37 -8 0
v -34 -9 0
v -35 -9 0
v -35 -8 0
v -34 -8 0
v -30 -9 0
v -31 -9 0
v -31 -8 0
v -30 -8 0
v -26 -9 0
v -27 -9 0
v -27 -8 0
v -26 -8 0
v -22 -9 0
v -23 -9 0
v -23 -8 0
v -22 -8 0
v -18 -9 0
v -19 -9 0
v -19 -8 0
v -18 -8 0
v -15 -9 0
v -16 -9 0
v -16 -8 0
v -15 -8 0
v -12 -9 0
v -13 -9 0
v -13 -8 0
v -12 -8 0
v -9 -9 0
v -10 -9 0
v -10 -8 0
v -9 -8 0
v -6 -9 0
v -7 -9 0
v -7 -8 0
v -6 -8 0
v -28 -10 0
v -29 -10 0
v -29 -9 0
v -28 -9 0
v -24 -10 0
v -25 -10 0
v -25 -9 0
v -24 -9 0
v -20 -10 0
v -21 -10 0
v -21 -9 0
v -20 -9 0
v -44 -12 0
v -45 -12 0
v -45 -11 0
v -44 -11 0
v -41 -12 0
v -42 -12 0
v -42 -11 0
v -41 -11 0
v -38 -12 0
v -39 -12 0
v -39 -11 0
v -38 -11 0
v -35 -12 0
v -36 -12 0
v -36 -11 0
v -35 -11 0
v -32 -12 0
v -33 -12 0
v -33 -11 0
v -32 -11 0
v -29 -12 0
v -30 -12 0
v -30 -11 0
v -29 -11 0
v -26 -12 0
v -27 -12 0
v -27 -11 0
v -26 -11 0
v -23 -12 0
v -24 -12 0
v -24 -11 0
v -23 -11 0
v -20 -12 0
v -21 -12 0
v -21 -11 0
v -20 -11 0
v -17 -12 0
v -18 -12 0
v -18 -11 0
v -17 -11 0
v -14 -12 0
v -15 -12 0
v -15 -11 0
v -14 -11 0
v -11 -12 0
v -12 -12 0
v -12 -11 0
v -11 -11 0
v -8 -12 0
v -9 -12 0
v -9 -11 0
v -8 -11 0
v -5 -12 0
v -6 -12 0
v -6 -11 0
v -5 -11 0
v -44 -13 0
v -45 -13 0
v -45 -12 0
v -44 -12 0
v -41 -13 0
v -42 -13 0
v -42 -12 0
v -41 -12 0
v -38 -13 0
v -39 -13 0
v -39 -12 0
v -38 -12 0
v -35 -13 0
v -36 -13 0
v -36 -12 0
v -35 -12 0
v -32 -13 0
v -33 -13 0
v -33 -12 0
v -32 -12 0
v -29 -13 0
v -30 -13 0
v -30 -12 0
v -29 -12 0
v -26 -13 0
v -27 -13 0
v -27 -12 0
v -26 -12 0
v -23 -13 0
v -24 -13 0
v -24 -12 0
v -23 -12 0
v -20 -13 0
v -21 -13 0
v -21 -12 0
v -20 -12 0
v -17 -13 0
v -18 -13 0
v -18 -12 0
v -17 -12 0
v -14 -13 0
v -15 -13 0
v -15 -12 0
v -14 -12 0
v -11 -13 0
v -12 -13 0
v -12 -12 0
v -11 -12 0
v -8 -13 0
v -9 -13 0
v -9 -12 0
v -8 -12 0
v -5 -13 0
v -6 -13 0
v -6 -12 0
v -5 -12 0
v -44 -14 0
v -45 -14 0
v -45 -13 0
v -44 -13 0
v -41 -14 0
v -42 -14 0
v -42 -13 0
v -41 -13 0
v -38 -14 0
v -39 -14 0
v -39 -13 0
v -38 -13 0
v -35 -14 0
v -36 -14 0
v -36 -13 0
v -35 -13 0
v -32 -14 0
v -33 -14 0
v -33 -13 0
v -32 -13 0
v -29 -14 0
v -30 -14 0
v -30 -13 0
v -29 -13 0
v -26 -14 0
v -27 -14 0
v -27 -13 0
v -26 -13 0
v -23 -14 0
v -24 -14 0
v -24 -13 0
v -23 -13 0
v -20 -14 0
v -21 -14 0
v -21 -13 0
v -20 -13 0
v -17 -14 0
v -18 -14 0
v -18 -13 0
v -17 -13 0
v -14 -14 0
v -15 -14 0
v -15 -13 0
v -14 -13 0
v -11 -14 0
v -12 -14 0
v -12 -13 0
v -11 -13 0
v -8 -14 0
v -9 -14 0
v -9 -13 0
v -8 -13 0
v -5 -14 0
v -6 -14 0
v -6 -13 0
v -5 -13 0
v -44 -15 0
v -45 -15 0
v -45 -14 0
v -44 -14 0
v -41 -15 0
v -42 -15 0
v -42 -14 0
v -41 -14 0
v -38 -15 0
v -39 -15 0
v -39 -14 0
v -38 -14 0
v -35 -15 0
v -36 -15 0
v -36 -14 0
v -35 -14 0
v -32 -15 0
v -33 -15 0
v -33 -14 0
v -32 -14 0
v -29 -15 0
v -30 -15 0
v -30 -14 0
v -29 -14 0
v -26 -15 0
v -27 -15 0
v -27 -14 0
v -26 -14 0
v -23 -15 0
v -24 -15 0
v -24 -14 0
v -23 -14 0
v -20 -15 0
v -21 -15 0
v -21 -14 0
v -20 -14 0
v -17 -15 0
v -18 -15 0
v -18 -14 0
v -17 -14 0
v -14 -15 0
v -15 -15 0
v -15 -14 0
v -14 -14 0
v -11 -15 0
v -12 -15 0
v -12 -14 0
v -11 -14 0
v -8 -15 0
v -9 -15 0
v -9 -14 0
v -8 -14 0
v -5 -15 0
v -6 -15 0
v -6 -14 0
v -5 -14 0
v -43 -18 0
v -44 -18 0
v -44 -17 0
v -43 -17 0
v -42 -18 0
v -43 -18 0
v -43 -17 0
v -42 -17 0
v -37 -18 0
v -38 -18 0
v -38 -17 0
v -37 -17 0
v -36 -18 0
v -37 -18 0
v -37 -17 0
v -36 -17 0
v -31 -18 0
v -32 -18 0
v -32 -17 0
v -31 -17 0
v -30 -18 0
v -31 -18 0
v -31 -17 0
v -30 -17 0
v -25 -18 0
v -26 -18 0
v -26 -17 0
v -25 -17 0
v -24 -18 0
v -25 -18 0
v -25 -17 0
v -24 -17 0
v -19 -18 0
v -20 -18 0
v -20 -17 0
v -19 -17 0
v -18 -18 0
v -19 -18 0
v -19 -17 0
v -18 -17 0
v -13 -18 0
v -14 -18 0
v -14 -17 0
v -13 -17 0
v -12 -18 0
v -13 -18 0
v -13 -17 0
v -12 -17 0
v -7 -18 0
v -8 -18 0
v -8 -17 0
v -7 -17 0
v -6 -18 0
v -7 -18 0
v -7 -17 0
v -6 -17 0
v -40 -19 0
v -41 -19 0
v -41 -18 0
v -40 -18 0
v -39 -19 0
v -40 -19 0
v -40 -18 0
v -39 -18 0
v -34 -19 0
v -35 -19 0
v -35 -18 0
v -34 -18 0
v -33 -19 0
v -34 -19 0
v -34 -18 0
v -33 -18 0
v -28 -19 0
v -29 -19 0
v -29 -18 0
v -28 -18 0
v -27 -19 0
v -28 -19 0
v -28 -18 0
v -27 -18 0
v -22 -19 0
v -23 -19 0
v -23 -18 0
v -22 -18 0
v -21 -19 0
v -22 -19 0
v -22 -18 0
v -21 -18 0
v -16 -19 0
v -17 -19 0
v -17 -18 0
v -16 -18 0
v -15 -19 0
v -16 -19 0
v -16 -18 0
v -15 -18 0
v -10 -19 0
v -11 -19 0
v -11 -18 0
v -10 -18 0
v -9 -19 0
v -10 -19 0
v -10 -18 0
v -9 -18 0
v -40 -20 0
v -41 -20 0
v -41 -19 0
v -40 -19 0
v -39 -20 0
v -40 -20 0
v -40 -19 0
v -39 -19 0
v -34 -20 0
v -35 -20 0
v -35 -19 0
v -34 -19 0
v -33 -20 0
v -34 -20 0
v -34 -19 0
v -33 -19 0
v -28 -20 0
v -29 -20 0
v -29 -19 0
v -28 -19 0
v -27 -20 0
v -28 -20 0
v -28 -19 0
v -27 -19 0
v -22 -20 0
v -23 -20 0
v -23 -19 0
v -22 -19 0
v -21 -20 0
v -22 -20 0
v -22 -19 0
v -21 -19 0
v -16 -20 0
v -17 -20 0
v -17 -19 0
v -16 -19 0
v -15 -20 0
v -16 -20 0
v -16 -19 0
v -15 -19 0
v -10 -20 0
v -11 -20 0
v -11 -19 0
v -10 -19 0
v -9 -20 0
v -10 -20 0
v -10 -19 0
v -9 -19 0
v -28 -23 0
v -29 -23 0
v -29 -22 0
v -28 -22 0
v -27 -23 0
v -28 -23 0
v -28 -22 0
v -27 -22 0
v -26 -23 0
v -27 -23 0
v -27 -22 0
v -26 -22 0
v -25 -23 0
v -26 -23 0
v -26 -22 0
v -25 -22 0
v -24 -23 0
v -25 -23 0
v -25 -22 0
v -24 -22 0
v -23 -23 0
v -24 -23 0
v -24 -22 0
v -23 -22 0
v -22 -23 0
v -23 -23 0
v -23 -22 0
v -22 -22 0
v -21 -23 0
v -22 -23 0
v -22 -22 0
v -21 -22 0

# Texture cooridinates (Count = 116)
vt 0.9307851 0.8403042
vt 0.947314 0.8403042
vt 0.947314 0.8707224
vt 0.9307851 0.8707224
vt 0.9132231 0.8079848
vt 0.9297521 0.8079848
vt 0.9297521 0.838403
vt 0.9132231 0.838403
vt 0.8956612 0.8079848
vt 0.9121901 0.8079848
vt 0.9121901 0.838403
vt 0.8956612 0.838403
vt 0.1931818 0.8726236
vt 0.2097107 0.8726236
vt 0.2097107 0.9030418
vt 0.1931818 0.9030418
vt 0.7200413 0.6787072
vt 0.7365702 0.6787072
vt 0.7365702 0.7091255
vt 0.7200413 0.7091255
vt 0.1756198 0.8726236
vt 0.1921488 0.8726236
vt 0.1921488 0.9030418
vt 0.1756198 0.9030418
vt 0.9307851 0.9372624
vt 0.947314 0.9372624
vt 0.947314 0.9676806
vt 0.9307851 0.9676806
vt 0.8956612 0.904943
vt 0.9121901 0.904943
vt 0.9121901 0.9353612
vt 0.8956612 0.9353612
vt 0.9307851 0.743346
vt 0.947314 0.743346
vt 0.947314 0.7737643
vt 0.9307851 0.7737643
vt 0.8956612 0.9695817
vt 0.9121901 0.9695817
vt 0.9121901 1
vt 0.8956612 1
vt 0.7727273 0.7110266
vt 0.7892562 0.7110266
vt 0.7892562 0.7414448
vt 0.7727273 0.7414448
vt 0.8780992 0.8726236
vt 0.8946281 0.8726236
vt 0.8946281 0.9030418
vt 0.8780992 0.9030418
vt 0.8780992 0.7756654
vt 0.8946281 0.7756654
vt 0.8946281 0.8060837
vt 0.8780992 0.8060837
vt 0.8780992 0.9695817
vt 0.8946281 0.9695817
vt 0.8946281 1
vt 0.8780992 1
vt 0.9307851 0.904943
vt 0.947314 0.904943
vt 0.947314 0.9353612
vt 0.9307851 0.9353612
vt 0.9132231 0.904943
vt 0.9297521 0.904943
vt 0.9297521 0.9353612
vt 0.9132231 0.9353612
vt 0.8780992 0.8403042
vt 0.8946281 0.8403042
vt 0.8946281 0.8707224
vt 0.8780992 0.8707224
vt 0.8780992 0.743346
vt 0.8946281 0.743346
vt 0.8946281 0.7737643
vt 0.8780992 0.7737643
vt 0.8780992 0.9372624
vt 0.8946281 0.9372624
vt 0.8946281 0.9676806
vt 0.8780992 0.9676806
vt 0.8780992 0.8079848
vt 0.8946281 0.8079848
vt 0.8946281 0.838403
vt 0.8780992 0.838403
vt 0.8780992 0.7110266
vt 0.8946281 0.7110266
vt 0.8946281 0.7414448
vt 0.8780992 0.7414448
vt 0.8780992 0.904943
vt 0.8946281 0.904943
vt 0.8946281 0.9353612
vt 0.8780992 0.9353612
vt 0.8254132 0.7110266
vt 0.8419421 0.7110266
vt 0.8419421 0.7414448
vt 0.8254132 0.7414448
vt 0.8429752 0.7110266
vt 0.8595041 0.7110266
vt 0.8595041 0.7414448
vt 0.8429752 0.7414448
vt 0.7024794 0.7110266
vt 0.7190083 0.7110266
vt 0.7190083 0.7414448
vt 0.7024794 0.7414448
vt 0.7200413 0.7110266
vt 0.7365702 0.7110266
vt 0.7365702 0.7414448
vt 0.7200413 0.7414448
vt 0.4566116 0.4201521
vt 0.4731405 0.4201521
vt 0.4731405 0.4505703
vt 0.4566116 0.4505703
vt 0.4390496 0.4201521
vt 0.4555785 0.4201521
vt 0.4555785 0.4505703
vt 0.4390496 0.4505703
vt 0.4214876 0.4201521
vt 0.4380165 0.4201521
vt 0.4380165 0.4505703
vt 0.4214876 0.4505703

# Normal
vn 0 0 -1

# Mesh description
g BurgEingang1_mesh_0003

# Faces
f 1/1/1 2/2/1 3/3/1 4/4/1
f 5/5/1 6/6/1 7/7/1 8/8/1
f 9/9/1 10/10/1 11/11/1 12/12/1
f 13/13/1 14/14/1 15/15/1 16/16/1
f 17/17/1 18/18/1 19/19/1 20/20/1
f 21/17/1 22/18/1 23/19/1 24/20/1
f 25/17/1 26/18/1 27/19/1 28/20/1
f 29/17/1 30/18/1 31/19/1 32/20/1
f 33/17/1 34/18/1 35/19/1 36/20/1
f 37/17/1 38/18/1 39/19/1 40/20/1
f 41/17/1 42/18/1 43/19/1 44/20/1
f 45/17/1 46/18/1 47/19/1 48/20/1
f 49/17/1 50/18/1 51/19/1 52/20/1
f 53/17/1 54/18/1 55/19/1 56/20/1
f 57/1/1 58/2/1 59/3/1 60/4/1
f 61/21/1 62/22/1 63/23/1 64/24/1
f 65/25/1 66/26/1 67/27/1 68/28/1
f 69/29/1 70/30/1 71/31/1 72/32/1
f 73/13/1 74/14/1 75/15/1 76/16/1
f 77/13/1 78/14/1 79/15/1 80/16/1
f 81/21/1 82/22/1 83/23/1 84/24/1
f 85/21/1 86/22/1 87/23/1 88/24/1
f 89/13/1 90/14/1 91/15/1 92/16/1
f 93/33/1 94/34/1 95/35/1 96/36/1
f 97/13/1 98/14/1 99/15/1 100/16/1
f 101/13/1 102/14/1 103/15/1 104/16/1
f 105/37/1 106/38/1 107/39/1 108/40/1
f 109/41/1 110/42/1 111/43/1 112/44/1
f 113/37/1 114/38/1 115/39/1 116/40/1
f 117/41/1 118/42/1 119/43/1 120/44/1
f 121/37/1 122/38/1 123/39/1 124/40/1
f 125/37/1 126/38/1 127/39/1 128/40/1
f 129/41/1 130/42/1 131/43/1 132/44/1
f 133/37/1 134/38/1 135/39/1 136/40/1
f 137/41/1 138/42/1 139/43/1 140/44/1
f 141/37/1 142/38/1 143/39/1 144/40/1
f 145/37/1 146/38/1 147/39/1 148/40/1
f 149/41/1 150/42/1 151/43/1 152/44/1
f 153/37/1 154/38/1 155/39/1 156/40/1
f 157/41/1 158/42/1 159/43/1 160/44/1
f 161/37/1 162/38/1 163/39/1 164/40/1
f 165/37/1 166/38/1 167/39/1 168/40/1
f 169/41/1 170/42/1 171/43/1 172/44/1
f 173/21/1 174/22/1 175/23/1 176/24/1
f 177/21/1 178/22/1 179/23/1 180/24/1
f 181/21/1 182/22/1 183/23/1 184/24/1
f 185/13/1 186/14/1 187/15/1 188/16/1
f 189/13/1 190/14/1 191/15/1 192/16/1
f 193/13/1 194/14/1 195/15/1 196/16/1
f 197/21/1 198/22/1 199/23/1 200/24/1
f 201/21/1 202/22/1 203/23/1 204/24/1
f 205/21/1 206/22/1 207/23/1 208/24/1
f 209/45/1 210/46/1 211/47/1 212/48/1
f 213/49/1 214/50/1 215/51/1 216/52/1
f 217/45/1 218/46/1 219/47/1 220/48/1
f 221/53/1 222/54/1 223/55/1 224/56/1
f 225/57/1 226/58/1 227/59/1 228/60/1
f 229/61/1 230/62/1 231/63/1 232/64/1
f 233/29/1 234/30/1 235/31/1 236/32/1
f 237/57/1 238/58/1 239/59/1 240/60/1
f 241/61/1 242/62/1 243/63/1 244/64/1
f 245/29/1 246/30/1 247/31/1 248/32/1
f 249/57/1 250/58/1 251/59/1 252/60/1
f 253/61/1 254/62/1 255/63/1 256/64/1
f 257/29/1 258/30/1 259/31/1 260/32/1
f 261/57/1 262/58/1 263/59/1 264/60/1
f 265/61/1 266/62/1 267/63/1 268/64/1
f 269/29/1 270/30/1 271/31/1 272/32/1
f 273/57/1 274/58/1 275/59/1 276/60/1
f 277/61/1 278/62/1 279/63/1 280/64/1
f 281/29/1 282/30/1 283/31/1 284/32/1
f 285/53/1 286/54/1 287/55/1 288/56/1
f 289/45/1 290/46/1 291/47/1 292/48/1
f 293/49/1 294/50/1 295/51/1 296/52/1
f 297/45/1 298/46/1 299/47/1 300/48/1
f 301/65/1 302/66/1 303/67/1 304/68/1
f 305/69/1 306/70/1 307/71/1 308/72/1
f 309/65/1 310/66/1 311/67/1 312/68/1
f 313/73/1 314/74/1 315/75/1 316/76/1
f 317/73/1 318/74/1 319/75/1 320/76/1
f 321/65/1 322/66/1 323/67/1 324/68/1
f 325/69/1 326/70/1 327/71/1 328/72/1
f 329/65/1 330/66/1 331/67/1 332/68/1
f 333/77/1 334/78/1 335/79/1 336/80/1
f 337/81/1 338/82/1 339/83/1 340/84/1
f 341/77/1 342/78/1 343/79/1 344/80/1
f 345/85/1 346/86/1 347/87/1 348/88/1
f 349/89/1 350/90/1 351/91/1 352/92/1
f 353/89/1 354/90/1 355/91/1 356/92/1
f 357/89/1 358/90/1 359/91/1 360/92/1
f 361/89/1 362/90/1 363/91/1 364/92/1
f 365/85/1 366/86/1 367/87/1 368/88/1
f 369/77/1 370/78/1 371/79/1 372/80/1
f 373/81/1 374/82/1 375/83/1 376/84/1
f 377/77/1 378/78/1 379/79/1 380/80/1
f 381/93/1 382/94/1 383/95/1 384/96/1
f 385/93/1 386/94/1 387/95/1 388/96/1
f 389/93/1 390/94/1 391/95/1 392/96/1
f 393/97/1 394/98/1 395/99/1 396/100/1
f 397/97/1 398/98/1 399/99/1 400/100/1
f 401/97/1 402/98/1 403/99/1 404/100/1
f 405/97/1 406/98/1 407/99/1 408/100/1
f 409/97/1 410/98/1 411/99/1 412/100/1
f 413/97/1 414/98/1 415/99/1 416/100/1
f 417/97/1 418/98/1 419/99/1 420/100/1
f 421/97/1 422/98/1 423/99/1 424/100/1
f 425/97/1 426/98/1 427/99/1 428/100/1
f 429/97/1 430/98/1 431/99/1 432/100/1
f 433/97/1 434/98/1 435/99/1 436/100/1
f 437/97/1 438/98/1 439/99/1 440/100/1
f 441/97/1 442/98/1 443/99/1 444/100/1
f 445/97/1 446/98/1 447/99/1 448/100/1
f 449/101/1 450/102/1 451/103/1 452/104/1
f 453/101/1 454/102/1 455/103/1 456/104/1
f 457/101/1 458/102/1 459/103/1 460/104/1
f 461/101/1 462/102/1 463/103/1 464/104/1
f 465/101/1 466/102/1 467/103/1 468/104/1
f 469/101/1 470/102/1 471/103/1 472/104/1
f 473/101/1 474/102/1 475/103/1 476/104/1
f 477/101/1 478/102/1 479/103/1 480/104/1
f 481/101/1 482/102/1 483/103/1 484/104/1
f 485/101/1 486/102/1 487/103/1 488/104/1
f 489/101/1 490/102/1 491/103/1 492/104/1
f 493/101/1 494/102/1 495/103/1 496/104/1
f 497/101/1 498/102/1 499/103/1 500/104/1
f 501/101/1 502/102/1 503/103/1 504/104/1
f 505/101/1 506/102/1 507/103/1 508/104/1
f 509/101/1 510/102/1 511/103/1 512/104/1
f 513/101/1 514/102/1 515/103/1 516/104/1
f 517/101/1 518/102/1 519/103/1 520/104/1
f 521/101/1 522/102/1 523/103/1 524/104/1
f 525/101/1 526/102/1 527/103/1 528/104/1
f 529/101/1 530/102/1 531/103/1 532/104/1
f 533/101/1 534/102/1 535/103/1 536/104/1
f 537/101/1 538/102/1 539/103/1 540/104/1
f 541/101/1 542/102/1 543/103/1 544/104/1
f 545/101/1 546/102/1 547/103/1 548/104/1
f 549/101/1 550/102/1 551/103/1 552/104/1
f 553/101/1 554/102/1 555/103/1 556/104/1
f 557/101/1 558/102/1 559/103/1 560/104/1
f 561/101/1 562/102/1 563/103/1 564/104/1
f 565/101/1 566/102/1 567/103/1 568/104/1
f 569/101/1 570/102/1 571/103/1 572/104/1
f 573/101/1 574/102/1 575/103/1 576/104/1
f 577/101/1 578/102/1 579/103/1 580/104/1
f 581/101/1 582/102/1 583/103/1 584/104/1
f 585/101/1 586/102/1 587/103/1 588/104/1
f 589/101/1 590/102/1 591/103/1 592/104/1
f 593/101/1 594/102/1 595/103/1 596/104/1
f 597/101/1 598/102/1 599/103/1 600/104/1
f 601/101/1 602/102/1 603/103/1 604/104/1
f 605/101/1 606/102/1 607/103/1 608/104/1
f 609/101/1 610/102/1 611/103/1 612/104/1
f 613/101/1 614/102/1 615/103/1 616/104/1
f 617/93/1 618/94/1 619/95/1 620/96/1
f 621/93/1 622/94/1 623/95/1 624/96/1
f 625/93/1 626/94/1 627/95/1 628/96/1
f 629/93/1 630/94/1 631/95/1 632/96/1
f 633/93/1 634/94/1 635/95/1 636/96/1
f 637/93/1 638/94/1 639/95/1 640/96/1
f 641/93/1 642/94/1 643/95/1 644/96/1
f 645/93/1 646/94/1 647/95/1 648/96/1
f 649/93/1 650/94/1 651/95/1 652/96/1
f 653/93/1 654/94/1 655/95/1 656/96/1
f 657/93/1 658/94/1 659/95/1 660/96/1
f 661/93/1 662/94/1 663/95/1 664/96/1
f 665/93/1 666/94/1 667/95/1 668/96/1
f 669/93/1 670/94/1 671/95/1 672/96/1
f 673/53/1 674/54/1 675/55/1 676/56/1
f 677/53/1 678/54/1 679/55/1 680/56/1
f 681/45/1 682/46/1 683/47/1 684/48/1
f 685/45/1 686/46/1 687/47/1 688/48/1
f 689/49/1 690/50/1 691/51/1 692/52/1
f 693/49/1 694/50/1 695/51/1 696/52/1
f 697/49/1 698/50/1 699/51/1 700/52/1
f 701/49/1 702/50/1 703/51/1 704/52/1
f 705/45/1 706/46/1 707/47/1 708/48/1
f 709/45/1 710/46/1 711/47/1 712/48/1
f 713/53/1 714/54/1 715/55/1 716/56/1
f 717/53/1 718/54/1 719/55/1 720/56/1
f 721/85/1 722/86/1 723/87/1 724/88/1
f 725/85/1 726/86/1 727/87/1 728/88/1
f 729/77/1 730/78/1 731/79/1 732/80/1
f 733/77/1 734/78/1 735/79/1 736/80/1
f 737/81/1 738/82/1 739/83/1 740/84/1
f 741/81/1 742/82/1 743/83/1 744/84/1
f 745/81/1 746/82/1 747/83/1 748/84/1
f 749/81/1 750/82/1 751/83/1 752/84/1
f 753/77/1 754/78/1 755/79/1 756/80/1
f 757/77/1 758/78/1 759/79/1 760/80/1
f 761/85/1 762/86/1 763/87/1 764/88/1
f 765/85/1 766/86/1 767/87/1 768/88/1
f 769/105/1 770/106/1 771/107/1 772/108/1
f 773/109/1 774/110/1 775/111/1 776/112/1
f 777/109/1 778/110/1 779/111/1 780/112/1
f 781/109/1 782/110/1 783/111/1 784/112/1
f 785/109/1 786/110/1 787/111/1 788/112/1
f 789/109/1 790/110/1 791/111/1 792/112/1
f 793/109/1 794/110/1 795/111/1 796/112/1
f 797/113/1 798/114/1 799/115/1 800/116/1

