# Tiled2Unity generated file. Do not modify by hand.
# Wavefront file for 'Crossroad1_mesh_0003.obj'

# Vertices (Count = 676)
v -49 -1 0
v -50 -1 0
v -50 0 0
v -49 0 0
v -48 -1 0
v -49 -1 0
v -49 0 0
v -48 0 0
v -47 -1 0
v -48 -1 0
v -48 0 0
v -47 0 0
v -46 -1 0
v -47 -1 0
v -47 0 0
v -46 0 0
v -45 -1 0
v -46 -1 0
v -46 0 0
v -45 0 0
v -44 -1 0
v -45 -1 0
v -45 0 0
v -44 0 0
v -43 -1 0
v -44 -1 0
v -44 0 0
v -43 0 0
v -42 -1 0
v -43 -1 0
v -43 0 0
v -42 0 0
v -41 -1 0
v -42 -1 0
v -42 0 0
v -41 0 0
v -40 -1 0
v -41 -1 0
v -41 0 0
v -40 0 0
v -39 -1 0
v -40 -1 0
v -40 0 0
v -39 0 0
v -38 -1 0
v -39 -1 0
v -39 0 0
v -38 0 0
v -37 -1 0
v -38 -1 0
v -38 0 0
v -37 0 0
v -36 -1 0
v -37 -1 0
v -37 0 0
v -36 0 0
v -35 -1 0
v -36 -1 0
v -36 0 0
v -35 0 0
v -34 -1 0
v -35 -1 0
v -35 0 0
v -34 0 0
v -33 -1 0
v -34 -1 0
v -34 0 0
v -33 0 0
v -32 -1 0
v -33 -1 0
v -33 0 0
v -32 0 0
v -31 -1 0
v -32 -1 0
v -32 0 0
v -31 0 0
v -49 -2 0
v -50 -2 0
v -50 -1 0
v -49 -1 0
v -48 -2 0
v -49 -2 0
v -49 -1 0
v -48 -1 0
v -39 -2 0
v -40 -2 0
v -40 -1 0
v -39 -1 0
v -30 -2 0
v -31 -2 0
v -31 -1 0
v -30 -1 0
v -28 -2 0
v -29 -2 0
v -29 -1 0
v -28 -1 0
v -4 -2 0
v -5 -2 0
v -5 -1 0
v -4 -1 0
v -46 -3 0
v -47 -3 0
v -47 -2 0
v -46 -2 0
v -30 -3 0
v -31 -3 0
v -31 -2 0
v -30 -2 0
v -28 -3 0
v -29 -3 0
v -29 -2 0
v -28 -2 0
v -11 -3 0
v -12 -3 0
v -12 -2 0
v -11 -2 0
v -8 -3 0
v -9 -3 0
v -9 -2 0
v -8 -2 0
v -4 -3 0
v -5 -3 0
v -5 -2 0
v -4 -2 0
v -2 -3 0
v -3 -3 0
v -3 -2 0
v -2 -2 0
v -1 -3 0
v -2 -3 0
v -2 -2 0
v -1 -2 0
v -49 -4 0
v -50 -4 0
v -50 -3 0
v -49 -3 0
v -46 -4 0
v -47 -4 0
v -47 -3 0
v -46 -3 0
v -41 -4 0
v -42 -4 0
v -42 -3 0
v -41 -3 0
v -36 -4 0
v -37 -4 0
v -37 -3 0
v -36 -3 0
v -27 -4 0
v -28 -4 0
v -28 -3 0
v -27 -3 0
v -24 -4 0
v -25 -4 0
v -25 -3 0
v -24 -3 0
v -23 -4 0
v -24 -4 0
v -24 -3 0
v -23 -3 0
v -18 -4 0
v -19 -4 0
v -19 -3 0
v -18 -3 0
v -15 -4 0
v -16 -4 0
v -16 -3 0
v -15 -3 0
v -14 -4 0
v -15 -4 0
v -15 -3 0
v -14 -3 0
v -11 -4 0
v -12 -4 0
v -12 -3 0
v -11 -3 0
v -6 -4 0
v -7 -4 0
v -7 -3 0
v -6 -3 0
v -41 -5 0
v -42 -5 0
v -42 -4 0
v -41 -4 0
v -36 -5 0
v -37 -5 0
v -37 -4 0
v -36 -4 0
v -27 -5 0
v -28 -5 0
v -28 -4 0
v -27 -4 0
v -15 -5 0
v -16 -5 0
v -16 -4 0
v -15 -4 0
v -10 -5 0
v -11 -5 0
v -11 -4 0
v -10 -4 0
v -9 -5 0
v -10 -5 0
v -10 -4 0
v -9 -4 0
v -49 -6 0
v -50 -6 0
v -50 -5 0
v -49 -5 0
v -29 -6 0
v -30 -6 0
v -30 -5 0
v -29 -5 0
v -12 -6 0
v -13 -6 0
v -13 -5 0
v -12 -5 0
v -9 -6 0
v -10 -6 0
v -10 -5 0
v -9 -5 0
v -6 -6 0
v -7 -6 0
v -7 -5 0
v -6 -5 0
v -3 -6 0
v -4 -6 0
v -4 -5 0
v -3 -5 0
v -41 -7 0
v -42 -7 0
v -42 -6 0
v -41 -6 0
v -37 -7 0
v -38 -7 0
v -38 -6 0
v -37 -6 0
v -31 -7 0
v -32 -7 0
v -32 -6 0
v -31 -6 0
v -26 -7 0
v -27 -7 0
v -27 -6 0
v -26 -6 0
v -15 -7 0
v -16 -7 0
v -16 -6 0
v -15 -6 0
v -13 -7 0
v -14 -7 0
v -14 -6 0
v -13 -6 0
v -2 -7 0
v -3 -7 0
v -3 -6 0
v -2 -6 0
v -49 -8 0
v -50 -8 0
v -50 -7 0
v -49 -7 0
v -41 -8 0
v -42 -8 0
v -42 -7 0
v -41 -7 0
v -39 -8 0
v -40 -8 0
v -40 -7 0
v -39 -7 0
v -36 -8 0
v -37 -8 0
v -37 -7 0
v -36 -7 0
v -26 -8 0
v -27 -8 0
v -27 -7 0
v -26 -7 0
v -23 -8 0
v -24 -8 0
v -24 -7 0
v -23 -7 0
v -15 -8 0
v -16 -8 0
v -16 -7 0
v -15 -7 0
v -8 -8 0
v -9 -8 0
v -9 -7 0
v -8 -7 0
v -6 -8 0
v -7 -8 0
v -7 -7 0
v -6 -7 0
v -3 -8 0
v -4 -8 0
v -4 -7 0
v -3 -7 0
v -47 -9 0
v -48 -9 0
v -48 -8 0
v -47 -8 0
v -36 -9 0
v -37 -9 0
v -37 -8 0
v -36 -8 0
v -34 -9 0
v -35 -9 0
v -35 -8 0
v -34 -8 0
v -28 -9 0
v -29 -9 0
v -29 -8 0
v -28 -8 0
v -23 -9 0
v -24 -9 0
v -24 -8 0
v -23 -8 0
v -12 -9 0
v -13 -9 0
v -13 -8 0
v -12 -8 0
v -8 -9 0
v -9 -9 0
v -9 -8 0
v -8 -8 0
v -6 -9 0
v -7 -9 0
v -7 -8 0
v -6 -8 0
v -3 -9 0
v -4 -9 0
v -4 -8 0
v -3 -8 0
v -49 -10 0
v -50 -10 0
v -50 -9 0
v -49 -9 0
v -44 -10 0
v -45 -10 0
v -45 -9 0
v -44 -9 0
v -38 -10 0
v -39 -10 0
v -39 -9 0
v -38 -9 0
v -28 -10 0
v -29 -10 0
v -29 -9 0
v -28 -9 0
v -24 -10 0
v -25 -10 0
v -25 -9 0
v -24 -9 0
v -12 -10 0
v -13 -10 0
v -13 -9 0
v -12 -9 0
v -31 -11 0
v -32 -11 0
v -32 -10 0
v -31 -10 0
v -9 -11 0
v -10 -11 0
v -10 -10 0
v -9 -10 0
v 0 -11 0
v -1 -11 0
v -1 -10 0
v 0 -10 0
v -21 -13 0
v -22 -13 0
v -22 -12 0
v -21 -12 0
v -17 -13 0
v -18 -13 0
v -18 -12 0
v -17 -12 0
v -49 -15 0
v -50 -15 0
v -50 -14 0
v -49 -14 0
v -41 -15 0
v -42 -15 0
v -42 -14 0
v -41 -14 0
v -21 -15 0
v -22 -15 0
v -22 -14 0
v -21 -14 0
v -20 -15 0
v -21 -15 0
v -21 -14 0
v -20 -14 0
v -46 -16 0
v -47 -16 0
v -47 -15 0
v -46 -15 0
v -45 -16 0
v -46 -16 0
v -46 -15 0
v -45 -15 0
v -41 -16 0
v -42 -16 0
v -42 -15 0
v -41 -15 0
v -38 -16 0
v -39 -16 0
v -39 -15 0
v -38 -15 0
v -25 -16 0
v -26 -16 0
v -26 -15 0
v -25 -15 0
v -24 -16 0
v -25 -16 0
v -25 -15 0
v -24 -15 0
v -23 -16 0
v -24 -16 0
v -24 -15 0
v -23 -15 0
v -21 -16 0
v -22 -16 0
v -22 -15 0
v -21 -15 0
v -20 -16 0
v -21 -16 0
v -21 -15 0
v -20 -15 0
v -6 -16 0
v -7 -16 0
v -7 -15 0
v -6 -15 0
v -49 -17 0
v -50 -17 0
v -50 -16 0
v -49 -16 0
v -44 -17 0
v -45 -17 0
v -45 -16 0
v -44 -16 0
v -38 -17 0
v -39 -17 0
v -39 -16 0
v -38 -16 0
v -33 -17 0
v -34 -17 0
v -34 -16 0
v -33 -16 0
v -18 -17 0
v -19 -17 0
v -19 -16 0
v -18 -16 0
v -13 -17 0
v -14 -17 0
v -14 -16 0
v -13 -16 0
v -6 -17 0
v -7 -17 0
v -7 -16 0
v -6 -16 0
v -47 -18 0
v -48 -18 0
v -48 -17 0
v -47 -17 0
v -44 -18 0
v -45 -18 0
v -45 -17 0
v -44 -17 0
v -41 -18 0
v -42 -18 0
v -42 -17 0
v -41 -17 0
v -40 -18 0
v -41 -18 0
v -41 -17 0
v -40 -17 0
v -34 -18 0
v -35 -18 0
v -35 -17 0
v -34 -17 0
v -33 -18 0
v -34 -18 0
v -34 -17 0
v -33 -17 0
v -27 -18 0
v -28 -18 0
v -28 -17 0
v -27 -17 0
v -18 -18 0
v -19 -18 0
v -19 -17 0
v -18 -17 0
v -16 -18 0
v -17 -18 0
v -17 -17 0
v -16 -17 0
v -13 -18 0
v -14 -18 0
v -14 -17 0
v -13 -17 0
v -12 -18 0
v -13 -18 0
v -13 -17 0
v -12 -17 0
v -10 -18 0
v -11 -18 0
v -11 -17 0
v -10 -17 0
v -6 -18 0
v -7 -18 0
v -7 -17 0
v -6 -17 0
v -3 -18 0
v -4 -18 0
v -4 -17 0
v -3 -17 0
v -2 -18 0
v -3 -18 0
v -3 -17 0
v -2 -17 0
v -49 -19 0
v -50 -19 0
v -50 -18 0
v -49 -18 0
v -48 -19 0
v -49 -19 0
v -49 -18 0
v -48 -18 0
v -47 -19 0
v -48 -19 0
v -48 -18 0
v -47 -18 0
v -46 -19 0
v -47 -19 0
v -47 -18 0
v -46 -18 0
v -45 -19 0
v -46 -19 0
v -46 -18 0
v -45 -18 0
v -44 -19 0
v -45 -19 0
v -45 -18 0
v -44 -18 0
v -43 -19 0
v -44 -19 0
v -44 -18 0
v -43 -18 0
v -42 -19 0
v -43 -19 0
v -43 -18 0
v -42 -18 0
v -41 -19 0
v -42 -19 0
v -42 -18 0
v -41 -18 0
v -40 -19 0
v -41 -19 0
v -41 -18 0
v -40 -18 0
v -39 -19 0
v -40 -19 0
v -40 -18 0
v -39 -18 0
v -38 -19 0
v -39 -19 0
v -39 -18 0
v -38 -18 0
v -37 -19 0
v -38 -19 0
v -38 -18 0
v -37 -18 0
v -36 -19 0
v -37 -19 0
v -37 -18 0
v -36 -18 0
v -35 -19 0
v -36 -19 0
v -36 -18 0
v -35 -18 0
v -34 -19 0
v -35 -19 0
v -35 -18 0
v -34 -18 0
v -33 -19 0
v -34 -19 0
v -34 -18 0
v -33 -18 0
v -32 -19 0
v -33 -19 0
v -33 -18 0
v -32 -18 0
v -31 -19 0
v -32 -19 0
v -32 -18 0
v -31 -18 0
v -30 -19 0
v -31 -19 0
v -31 -18 0
v -30 -18 0
v -29 -19 0
v -30 -19 0
v -30 -18 0
v -29 -18 0
v -28 -19 0
v -29 -19 0
v -29 -18 0
v -28 -18 0
v -27 -19 0
v -28 -19 0
v -28 -18 0
v -27 -18 0
v -26 -19 0
v -27 -19 0
v -27 -18 0
v -26 -18 0
v -25 -19 0
v -26 -19 0
v -26 -18 0
v -25 -18 0
v -24 -19 0
v -25 -19 0
v -25 -18 0
v -24 -18 0
v -23 -19 0
v -24 -19 0
v -24 -18 0
v -23 -18 0
v -22 -19 0
v -23 -19 0
v -23 -18 0
v -22 -18 0
v -21 -19 0
v -22 -19 0
v -22 -18 0
v -21 -18 0
v -19 -19 0
v -20 -19 0
v -20 -18 0
v -19 -18 0
v -17 -19 0
v -18 -19 0
v -18 -18 0
v -17 -18 0
v -15 -19 0
v -16 -19 0
v -16 -18 0
v -15 -18 0
v -14 -19 0
v -15 -19 0
v -15 -18 0
v -14 -18 0
v -13 -19 0
v -14 -19 0
v -14 -18 0
v -13 -18 0
v -9 -19 0
v -10 -19 0
v -10 -18 0
v -9 -18 0
v -8 -19 0
v -9 -19 0
v -9 -18 0
v -8 -18 0
v -7 -19 0
v -8 -19 0
v -8 -18 0
v -7 -18 0
v -6 -19 0
v -7 -19 0
v -7 -18 0
v -6 -18 0
v -4 -19 0
v -5 -19 0
v -5 -18 0
v -4 -18 0

# Texture cooridinates (Count = 80)
vt 0.2634298 0.6787072
vt 0.2799587 0.6787072
vt 0.2799587 0.7091255
vt 0.2634298 0.7091255
vt 0.2458678 0.6463878
vt 0.2623967 0.6463878
vt 0.2623967 0.6768061
vt 0.2458678 0.6768061
vt 0.3161157 0.6463878
vt 0.3326446 0.6463878
vt 0.3326446 0.6768061
vt 0.3161157 0.6768061
vt 0.2985537 0.6463878
vt 0.3150826 0.6463878
vt 0.3150826 0.6768061
vt 0.2985537 0.6768061
vt 0.2809917 0.6463878
vt 0.2975207 0.6463878
vt 0.2975207 0.6768061
vt 0.2809917 0.6768061
vt 0.2634298 0.6463878
vt 0.2799587 0.6463878
vt 0.2799587 0.6768061
vt 0.2634298 0.6768061
vt 0.2283058 0.6463878
vt 0.2448347 0.6463878
vt 0.2448347 0.6768061
vt 0.2283058 0.6768061
vt 0.4039256 0.6787072
vt 0.4204545 0.6787072
vt 0.4204545 0.7091255
vt 0.4039256 0.7091255
vt 0.2809917 0.6140684
vt 0.2975207 0.6140684
vt 0.2975207 0.6444867
vt 0.2809917 0.6444867
vt 0.4917355 0.6787072
vt 0.5082645 0.6787072
vt 0.5082645 0.7091255
vt 0.4917355 0.7091255
vt 0.5092975 0.6787072
vt 0.5258265 0.6787072
vt 0.5258265 0.7091255
vt 0.5092975 0.7091255
vt 0.3161157 0.6140684
vt 0.3326446 0.6140684
vt 0.3326446 0.6444867
vt 0.3161157 0.6444867
vt 0.3336777 0.9695817
vt 0.3502066 0.9695817
vt 0.3502066 1
vt 0.3336777 1
vt 0.4039256 0.6463878
vt 0.4204545 0.6463878
vt 0.4204545 0.6768061
vt 0.4039256 0.6768061
vt 0.4214876 0.6787072
vt 0.4380165 0.6787072
vt 0.4380165 0.7091255
vt 0.4214876 0.7091255
vt 0.3688017 0.6787072
vt 0.3853306 0.6787072
vt 0.3853306 0.7091255
vt 0.3688017 0.7091255
vt 0.3336777 0.6787072
vt 0.3502066 0.6787072
vt 0.3502066 0.7091255
vt 0.3336777 0.7091255
vt 0.4214876 0.6463878
vt 0.4380165 0.6463878
vt 0.4380165 0.6768061
vt 0.4214876 0.6768061
vt 0.3688017 0.9695817
vt 0.3853306 0.9695817
vt 0.3853306 1
vt 0.3688017 1
vt 0.3512397 0.9695817
vt 0.3677686 0.9695817
vt 0.3677686 1
vt 0.3512397 1

# Normal
vn 0 0 -1

# Mesh description
g Crossroad1_mesh_0003

# Faces
f 1/1/1 2/2/1 3/3/1 4/4/1
f 5/1/1 6/2/1 7/3/1 8/4/1
f 9/5/1 10/6/1 11/7/1 12/8/1
f 13/9/1 14/10/1 15/11/1 16/12/1
f 17/9/1 18/10/1 19/11/1 20/12/1
f 21/13/1 22/14/1 23/15/1 24/16/1
f 25/17/1 26/18/1 27/19/1 28/20/1
f 29/5/1 30/6/1 31/7/1 32/8/1
f 33/21/1 34/22/1 35/23/1 36/24/1
f 37/13/1 38/14/1 39/15/1 40/16/1
f 41/1/1 42/2/1 43/3/1 44/4/1
f 45/21/1 46/22/1 47/23/1 48/24/1
f 49/17/1 50/18/1 51/19/1 52/20/1
f 53/13/1 54/14/1 55/15/1 56/16/1
f 57/13/1 58/14/1 59/15/1 60/16/1
f 61/25/1 62/26/1 63/27/1 64/28/1
f 65/9/1 66/10/1 67/11/1 68/12/1
f 69/9/1 70/10/1 71/11/1 72/12/1
f 73/5/1 74/6/1 75/7/1 76/8/1
f 77/21/1 78/22/1 79/23/1 80/24/1
f 81/29/1 82/30/1 83/31/1 84/32/1
f 85/1/1 86/2/1 87/3/1 88/4/1
f 89/17/1 90/18/1 91/19/1 92/20/1
f 93/17/1 94/18/1 95/19/1 96/20/1
f 97/17/1 98/18/1 99/19/1 100/20/1
f 101/9/1 102/10/1 103/11/1 104/12/1
f 105/33/1 106/34/1 107/35/1 108/36/1
f 109/33/1 110/34/1 111/35/1 112/36/1
f 113/9/1 114/10/1 115/11/1 116/12/1
f 117/37/1 118/38/1 119/39/1 120/40/1
f 121/33/1 122/34/1 123/35/1 124/36/1
f 125/41/1 126/42/1 127/43/1 128/44/1
f 129/41/1 130/42/1 131/43/1 132/44/1
f 133/25/1 134/26/1 135/27/1 136/28/1
f 137/45/1 138/46/1 139/47/1 140/48/1
f 141/17/1 142/18/1 143/19/1 144/20/1
f 145/9/1 146/10/1 147/11/1 148/12/1
f 149/9/1 150/10/1 151/11/1 152/12/1
f 153/29/1 154/30/1 155/31/1 156/32/1
f 157/41/1 158/42/1 159/43/1 160/44/1
f 161/49/1 162/50/1 163/51/1 164/52/1
f 165/17/1 166/18/1 167/19/1 168/20/1
f 169/37/1 170/38/1 171/39/1 172/40/1
f 173/45/1 174/46/1 175/47/1 176/48/1
f 177/29/1 178/30/1 179/31/1 180/32/1
f 181/33/1 182/34/1 183/35/1 184/36/1
f 185/45/1 186/46/1 187/47/1 188/48/1
f 189/45/1 190/46/1 191/47/1 192/48/1
f 193/33/1 194/34/1 195/35/1 196/36/1
f 197/41/1 198/42/1 199/43/1 200/44/1
f 201/41/1 202/42/1 203/43/1 204/44/1
f 205/53/1 206/54/1 207/55/1 208/56/1
f 209/41/1 210/42/1 211/43/1 212/44/1
f 213/57/1 214/58/1 215/59/1 216/60/1
f 217/37/1 218/38/1 219/39/1 220/40/1
f 221/61/1 222/62/1 223/63/1 224/64/1
f 225/37/1 226/38/1 227/39/1 228/40/1
f 229/9/1 230/10/1 231/11/1 232/12/1
f 233/65/1 234/66/1 235/67/1 236/68/1
f 237/33/1 238/34/1 239/35/1 240/36/1
f 241/17/1 242/18/1 243/19/1 244/20/1
f 245/41/1 246/42/1 247/43/1 248/44/1
f 249/37/1 250/38/1 251/39/1 252/40/1
f 253/57/1 254/58/1 255/59/1 256/60/1
f 257/9/1 258/10/1 259/11/1 260/12/1
f 261/45/1 262/46/1 263/47/1 264/48/1
f 265/37/1 266/38/1 267/39/1 268/40/1
f 269/17/1 270/18/1 271/19/1 272/20/1
f 273/33/1 274/34/1 275/35/1 276/36/1
f 277/41/1 278/42/1 279/43/1 280/44/1
f 281/41/1 282/42/1 283/43/1 284/44/1
f 285/17/1 286/18/1 287/19/1 288/20/1
f 289/41/1 290/42/1 291/43/1 292/44/1
f 293/9/1 294/10/1 295/11/1 296/12/1
f 297/29/1 298/30/1 299/31/1 300/32/1
f 301/33/1 302/34/1 303/35/1 304/36/1
f 305/29/1 306/30/1 307/31/1 308/32/1
f 309/9/1 310/10/1 311/11/1 312/12/1
f 313/41/1 314/42/1 315/43/1 316/44/1
f 317/9/1 318/10/1 319/11/1 320/12/1
f 321/33/1 322/34/1 323/35/1 324/36/1
f 325/41/1 326/42/1 327/43/1 328/44/1
f 329/45/1 330/46/1 331/47/1 332/48/1
f 333/13/1 334/14/1 335/15/1 336/16/1
f 337/69/1 338/70/1 339/71/1 340/72/1
f 341/37/1 342/38/1 343/39/1 344/40/1
f 345/45/1 346/46/1 347/47/1 348/48/1
f 349/61/1 350/62/1 351/63/1 352/64/1
f 353/45/1 354/46/1 355/47/1 356/48/1
f 357/37/1 358/38/1 359/39/1 360/40/1
f 361/57/1 362/58/1 363/59/1 364/60/1
f 365/5/1 366/6/1 367/7/1 368/8/1
f 369/73/1 370/74/1 371/75/1 372/76/1
f 373/77/1 374/78/1 375/79/1 376/80/1
f 377/53/1 378/54/1 379/55/1 380/56/1
f 381/9/1 382/10/1 383/11/1 384/12/1
f 385/9/1 386/10/1 387/11/1 388/12/1
f 389/9/1 390/10/1 391/11/1 392/12/1
f 393/41/1 394/42/1 395/43/1 396/44/1
f 397/41/1 398/42/1 399/43/1 400/44/1
f 401/45/1 402/46/1 403/47/1 404/48/1
f 405/17/1 406/18/1 407/19/1 408/20/1
f 409/57/1 410/58/1 411/59/1 412/60/1
f 413/57/1 414/58/1 415/59/1 416/60/1
f 417/57/1 418/58/1 419/59/1 420/60/1
f 421/45/1 422/46/1 423/47/1 424/48/1
f 425/45/1 426/46/1 427/47/1 428/48/1
f 429/9/1 430/10/1 431/11/1 432/12/1
f 433/17/1 434/18/1 435/19/1 436/20/1
f 437/37/1 438/38/1 439/39/1 440/40/1
f 441/33/1 442/34/1 443/35/1 444/36/1
f 445/29/1 446/30/1 447/31/1 448/32/1
f 449/17/1 450/18/1 451/19/1 452/20/1
f 453/9/1 454/10/1 455/11/1 456/12/1
f 457/45/1 458/46/1 459/47/1 460/48/1
f 461/37/1 462/38/1 463/39/1 464/40/1
f 465/33/1 466/34/1 467/35/1 468/36/1
f 469/41/1 470/42/1 471/43/1 472/44/1
f 473/41/1 474/42/1 475/43/1 476/44/1
f 477/41/1 478/42/1 479/43/1 480/44/1
f 481/37/1 482/38/1 483/39/1 484/40/1
f 485/41/1 486/42/1 487/43/1 488/44/1
f 489/33/1 490/34/1 491/35/1 492/36/1
f 493/37/1 494/38/1 495/39/1 496/40/1
f 497/45/1 498/46/1 499/47/1 500/48/1
f 501/57/1 502/58/1 503/59/1 504/60/1
f 505/41/1 506/42/1 507/43/1 508/44/1
f 509/37/1 510/38/1 511/39/1 512/40/1
f 513/41/1 514/42/1 515/43/1 516/44/1
f 517/41/1 518/42/1 519/43/1 520/44/1
f 521/17/1 522/18/1 523/19/1 524/20/1
f 525/13/1 526/14/1 527/15/1 528/16/1
f 529/9/1 530/10/1 531/11/1 532/12/1
f 533/25/1 534/26/1 535/27/1 536/28/1
f 537/5/1 538/6/1 539/7/1 540/8/1
f 541/53/1 542/54/1 543/55/1 544/56/1
f 545/25/1 546/26/1 547/27/1 548/28/1
f 549/9/1 550/10/1 551/11/1 552/12/1
f 553/13/1 554/14/1 555/15/1 556/16/1
f 557/25/1 558/26/1 559/27/1 560/28/1
f 561/5/1 562/6/1 563/7/1 564/8/1
f 565/17/1 566/18/1 567/19/1 568/20/1
f 569/53/1 570/54/1 571/55/1 572/56/1
f 573/9/1 574/10/1 575/11/1 576/12/1
f 577/53/1 578/54/1 579/55/1 580/56/1
f 581/25/1 582/26/1 583/27/1 584/28/1
f 585/21/1 586/22/1 587/23/1 588/24/1
f 589/9/1 590/10/1 591/11/1 592/12/1
f 593/53/1 594/54/1 595/55/1 596/56/1
f 597/21/1 598/22/1 599/23/1 600/24/1
f 601/5/1 602/6/1 603/7/1 604/8/1
f 605/21/1 606/22/1 607/23/1 608/24/1
f 609/9/1 610/10/1 611/11/1 612/12/1
f 613/5/1 614/6/1 615/7/1 616/8/1
f 617/21/1 618/22/1 619/23/1 620/24/1
f 621/17/1 622/18/1 623/19/1 624/20/1
f 625/25/1 626/26/1 627/27/1 628/28/1
f 629/13/1 630/14/1 631/15/1 632/16/1
f 633/13/1 634/14/1 635/15/1 636/16/1
f 637/21/1 638/22/1 639/23/1 640/24/1
f 641/9/1 642/10/1 643/11/1 644/12/1
f 645/9/1 646/10/1 647/11/1 648/12/1
f 649/9/1 650/10/1 651/11/1 652/12/1
f 653/5/1 654/6/1 655/7/1 656/8/1
f 657/9/1 658/10/1 659/11/1 660/12/1
f 661/9/1 662/10/1 663/11/1 664/12/1
f 665/5/1 666/6/1 667/7/1 668/8/1
f 669/9/1 670/10/1 671/11/1 672/12/1
f 673/21/1 674/22/1 675/23/1 676/24/1

